<svg width="1069" height="799" viewBox="0 0 1069 799" fill="none" xmlns="http://www.w3.org/2000/svg">
<path d="M482.66 250.044C482.756 250.907 479.304 252.154 473.645 253.209C467.891 254.264 459.931 255.031 451.012 254.935C442.093 254.839 434.133 253.88 428.378 252.633C422.72 251.483 419.267 250.044 419.363 249.277C419.651 247.55 433.749 248.51 451.012 248.701C468.275 248.893 482.373 248.222 482.66 250.044Z" fill="black" stroke="black" stroke-width="2" stroke-miterlimit="10"/>
<path d="M426.364 218.18C482.288 220.67 527.686 221.274 527.764 219.528C527.841 217.781 482.569 214.347 426.646 211.856C370.722 209.366 325.324 208.762 325.246 210.508C325.168 212.255 370.44 215.689 426.364 218.18Z" fill="black" stroke="black" stroke-width="2" stroke-miterlimit="10"/>
<path d="M282.617 247.094C338.541 249.584 383.939 250.188 384.016 248.442C384.094 246.695 338.822 243.261 282.898 240.77C226.975 238.28 181.577 237.676 181.499 239.422C181.421 241.169 226.693 244.603 282.617 247.094Z" fill="black" stroke="black" stroke-width="2" stroke-miterlimit="10"/>
<path d="M236.701 209.334C256.268 210.432 272.209 209.907 272.307 208.162C272.404 206.417 256.622 204.112 237.056 203.015C217.49 201.917 201.549 202.442 201.451 204.187C201.353 205.932 217.135 208.237 236.701 209.334Z" fill="black" stroke="black" stroke-width="2" stroke-miterlimit="10"/>
<path d="M376.648 132.699C376.552 133.562 366.099 133.658 349.028 133.467C340.588 133.371 330.422 133.371 319.201 133.275C307.98 133.275 295.705 133.275 282.757 133.371C269.81 133.562 257.535 133.85 246.314 134.138C235.093 134.522 225.023 134.809 216.487 135.097C199.512 135.672 188.963 135.864 188.867 135.001C188.771 134.138 199.225 132.412 216.2 130.685C224.639 129.822 234.805 129.055 246.026 128.384C257.247 127.808 269.619 127.329 282.662 127.137C295.705 127.041 308.076 127.137 319.297 127.52C330.518 127.904 340.684 128.48 349.219 129.055C366.29 130.302 376.744 131.836 376.648 132.699Z" fill="black" stroke="black" stroke-width="2" stroke-miterlimit="10"/>
<path d="M586.896 292.594C606.485 293.134 622.405 292.156 622.453 290.409C622.502 288.661 606.66 286.807 587.07 286.267C567.48 285.726 551.561 286.705 551.512 288.452C551.464 290.199 567.306 292.054 586.896 292.594Z" fill="black" stroke="black" stroke-width="2" stroke-miterlimit="10"/>
<path d="M359.883 174.632C457.362 173.324 536.366 170.846 536.342 169.099C536.319 167.351 457.277 166.995 359.798 168.303C262.318 169.612 183.314 172.089 183.337 173.837C183.361 175.585 262.403 175.941 359.883 174.632Z" fill="black" stroke="black" stroke-width="2" stroke-miterlimit="10"/>
<path d="M343.514 293.986C440.994 292.678 519.998 290.2 519.974 288.453C519.951 286.705 440.909 286.349 343.429 287.657C245.95 288.966 166.946 291.443 166.969 293.191C166.993 294.939 246.035 295.295 343.514 293.986Z" fill="black" stroke="black" stroke-width="2" stroke-miterlimit="10"/>
<path d="M805.652 27.7195L912.107 30.8843C958.908 23.7874 1005.61 16.6904 1052.42 9.59351C1027.38 43.1601 1002.35 76.8226 977.322 110.389L984.515 259.137C984.515 313.611 939.919 358.207 885.445 358.207H190.137C135.663 358.207 91.0674 313.611 91.0674 259.137V128.323C91.0674 73.8496 135.663 29.2539 190.137 29.2539C295.824 29.2539 782.348 26.2809 805.652 27.7195Z" stroke="black" stroke-width="14" stroke-miterlimit="10"/>
<path d="M710.57 741.949C710.666 742.812 721.119 742.908 738.19 742.716C746.63 742.62 756.796 742.62 768.017 742.525C779.237 742.525 791.513 742.525 804.46 742.62C817.407 742.812 829.683 743.1 840.904 743.388C852.125 743.771 862.195 744.059 870.73 744.347C887.706 744.922 898.255 745.114 898.351 744.251C898.447 743.388 887.993 741.661 871.018 739.935C862.578 739.072 852.413 738.305 841.192 737.633C829.971 737.058 817.599 736.578 804.556 736.387C791.513 736.291 779.141 736.387 767.921 736.77C756.7 737.154 746.534 737.729 737.998 738.305C720.927 739.551 710.474 741.086 710.57 741.949Z" fill="black" stroke="black" stroke-width="2" stroke-miterlimit="10"/>
<path d="M594.843 741.701C575.253 742.241 559.333 741.263 559.285 739.516C559.237 737.769 575.078 735.914 594.668 735.374C614.258 734.834 630.178 735.812 630.226 737.559C630.274 739.306 614.433 741.161 594.843 741.701Z" fill="black" stroke="black" stroke-width="2" stroke-miterlimit="10"/>
<path d="M460.694 741.911C428.97 741.485 403.272 739.723 403.295 737.975C403.319 736.227 429.055 735.156 460.779 735.582C492.502 736.007 518.201 737.769 518.177 739.517C518.154 741.265 492.417 742.336 460.694 741.911Z" fill="black" stroke="black" stroke-width="2" stroke-miterlimit="10"/>
<path d="M263.04 461.338L156.586 464.502C109.784 457.406 63.0788 450.309 16.2773 443.212C41.3084 476.778 66.3396 510.441 91.3707 544.007L84.1778 692.755C84.1778 747.229 128.773 791.825 183.247 791.825H878.556C933.029 791.825 977.625 747.229 977.625 692.755V561.942C977.625 507.468 933.029 462.872 878.556 462.872C772.869 462.872 286.345 459.899 263.04 461.338Z" stroke="black" stroke-width="14" stroke-miterlimit="10"/>
<path d="M879.754 138.904C874.407 120.353 802.959 117.512 788.085 115.172C764.854 111.495 741.54 108.32 718.142 105.729C707.78 104.559 690.984 100.548 681.04 105.729C680.789 105.562 680.455 105.311 680.204 105.144C678.115 103.724 676.026 105.144 675.19 107.066C673.602 107.484 672.349 108.905 672.85 110.743C687.975 160.129 700.176 214.78 731.262 256.98C733.518 259.988 737.027 260.573 739.952 258.066C748.643 250.713 756.999 243.109 765.272 235.337C765.773 236.842 767.027 238.178 768.865 238.346C784.325 239.6 801.288 241.856 816.079 247.371C816.412 247.872 816.663 248.374 816.998 248.959C819.839 253.638 826.608 251.466 826.942 246.285C827.611 233.834 826.942 221.466 826.19 209.014C825.522 198.067 826.525 186.034 824.519 175.339C824.519 175.172 824.352 175.005 824.352 174.837C830.368 173.417 836.719 168.737 841.399 166.063C852.012 160.047 862.123 153.194 872.903 147.345C874.24 146.676 874.907 145.674 875.325 144.587C875.409 144.587 875.492 144.587 875.492 144.587C878.334 144.419 880.59 141.829 879.754 138.904ZM761.93 155.199C771.957 160.547 801.957 183.527 814.073 176.759C815.16 176.174 815.661 175.087 815.828 173.917C815.913 174.001 816.08 174.001 816.163 174.085C815.912 174.419 815.661 174.837 815.494 175.254C812.402 184.196 814.574 195.56 815.16 204.753C815.662 212.608 816.163 220.463 816.33 228.318C809.728 218.373 802.959 208.513 795.689 198.987C795.773 197.9 795.522 196.647 794.52 195.56C777.723 177.928 755.914 162.97 736.777 147.929C729.841 142.497 722.905 136.982 715.969 131.55C731.345 139.238 746.637 147.01 761.93 155.199ZM737.027 245.866C711.123 207.76 703.1 161.968 684.382 120.52C688.393 123.779 693.491 127.038 695.58 128.626C706.861 137.567 717.808 146.759 729.256 155.617C747.473 169.739 764.938 188.625 785.16 200.156C769.367 215.699 753.657 231.242 737.027 245.866ZM770.704 230.156C778.392 222.802 785.996 215.365 793.517 207.844C797.946 216.619 802.792 225.059 807.723 233.499C795.689 230.24 781.985 228.4 770.704 230.156ZM837.388 154.614C832.54 157.539 827.611 160.464 822.848 163.472C821.176 164.558 819.422 165.477 817.834 166.564C816.497 167.483 813.489 169.906 816.246 169.405C815.495 169.572 815.077 170.073 814.826 170.658C814.575 170.408 814.409 170.157 814.157 169.99C795.94 159.544 776.387 150.603 757.751 140.742C746.303 134.726 734.855 127.289 722.989 120.938C744.13 123.027 766.024 123.528 785.077 126.453C804.881 129.545 824.602 132.971 844.157 136.982C848.753 137.901 854.017 139.823 859.282 141.495C851.844 145.756 844.657 150.269 837.388 154.614Z" fill="black"/>
<path d="M802.792 307.118C801.957 304.277 799.199 302.689 797.026 300.935C793.768 298.344 790.508 295.67 787.333 292.996C784.742 290.823 782.152 288.734 779.394 286.729C777.974 285.642 776.135 285.309 774.882 284.473C773.545 283.638 771.623 285.393 772.626 286.729C773.378 287.732 773.628 289.236 774.631 290.323C776.971 293.08 779.562 295.587 782.152 298.094C785.16 300.935 788.169 303.859 791.26 306.618C793.517 308.707 796.024 311.547 799.366 311.547C801.706 311.631 803.461 309.29 802.792 307.118Z" fill="black"/>
<path d="M830.034 301.186C826.942 297.759 822.011 295.838 818.251 293.08C813.321 289.403 809.143 284.807 804.296 281.047C801.789 279.125 798.864 282.05 800.87 284.474C804.463 289.07 808.724 293.164 813.07 297.008C816.915 300.434 821.844 305.448 827.109 306.2C830.034 306.533 832.207 303.525 830.034 301.186Z" fill="black"/>
<path d="M854.268 290.656C853.348 288.734 852.178 288.316 850.341 287.48C848.335 286.561 846.496 285.224 844.658 283.971C840.48 281.13 836.804 277.703 832.875 274.528C830.368 272.439 827.026 275.614 829.198 278.205C832.625 282.216 836.636 285.725 840.731 288.984C843.989 291.658 848 295.836 852.346 295.084C854.519 294.751 855.02 292.244 854.268 290.656Z" fill="black"/>
<path d="M872.15 267.508C870.061 266.506 865.632 263.079 862.958 261.157C858.613 257.898 854.518 254.305 850.424 250.712C847.833 248.455 844.24 251.882 846.58 254.556C850.591 259.068 855.102 263.246 859.698 267.257C863.041 270.182 866.718 274.027 871.482 272.856C873.822 272.271 874.49 268.595 872.15 267.508Z" fill="black"/>
<path d="M879.42 239.096C876.913 235.921 872.15 234.167 868.724 231.827C864.212 228.735 860.283 224.724 856.523 220.712C854.684 218.79 851.091 221.382 852.679 223.637C855.854 228.233 859.615 232.078 863.626 235.838C866.968 238.93 871.481 243.777 875.993 244.696C879.671 245.448 881.593 241.77 879.42 239.096Z" fill="black"/>
<path d="M881.761 213.526C875.41 210.602 869.393 207.008 864.212 202.078C862.541 200.49 859.867 202.496 860.953 204.585C863.377 208.93 866.97 212.44 870.815 215.448C873.823 217.872 876.83 220.379 880.926 219.125C883.348 218.457 884.268 214.696 881.761 213.526Z" fill="black"/>
<path d="M898.138 197.315C896.466 193.22 889.53 191.215 885.437 188.959C882.678 187.454 876.495 182.524 873.068 184.112C872.985 184.112 872.985 184.112 872.902 184.195C872.818 184.279 872.651 184.279 872.568 184.363H872.651C871.9 184.78 871.314 185.616 871.649 186.452C871.064 185.031 871.733 187.956 872.067 188.457C872.569 189.293 873.404 189.794 874.156 190.379C876.329 192.05 878.668 193.555 880.925 195.142C884.518 197.649 890.451 203.499 895.131 202.663C897.219 202.245 898.973 199.321 898.138 197.315Z" fill="black"/>
<path d="M622.541 639.844C622.445 640.707 625.898 641.953 631.556 643.008C637.31 644.063 645.27 644.831 654.189 644.735C663.109 644.639 671.069 643.68 676.823 642.433C682.481 641.282 685.934 639.844 685.838 639.076C685.55 637.35 671.452 638.309 654.189 638.501C636.927 638.693 622.829 638.021 622.541 639.844Z" fill="black" stroke="black" stroke-width="2" stroke-miterlimit="10"/>
<path d="M678.837 607.979C622.914 610.47 577.515 611.074 577.438 609.327C577.36 607.581 622.632 604.147 678.556 601.656C734.479 599.165 779.877 598.562 779.955 600.308C780.033 602.054 734.761 605.489 678.837 607.979Z" fill="black" stroke="black" stroke-width="2" stroke-miterlimit="10"/>
<path d="M822.585 636.894C766.662 639.384 721.263 639.988 721.186 638.241C721.108 636.495 766.38 633.061 822.304 630.57C878.227 628.08 923.626 627.476 923.703 629.222C923.781 630.968 878.509 634.403 822.585 636.894Z" fill="black" stroke="black" stroke-width="2" stroke-miterlimit="10"/>
<path d="M868.5 599.134C848.934 600.232 832.993 599.707 832.895 597.962C832.797 596.217 848.579 593.912 868.145 592.814C887.712 591.717 903.653 592.242 903.751 593.987C903.848 595.732 888.066 598.036 868.5 599.134Z" fill="black" stroke="black" stroke-width="2" stroke-miterlimit="10"/>
<path d="M728.554 522.499C728.65 523.363 739.104 523.458 756.175 523.267C764.614 523.171 774.78 523.171 786.001 523.075C797.222 523.075 809.498 523.075 822.445 523.171C835.392 523.363 847.668 523.65 858.888 523.938C870.109 524.322 880.179 524.609 888.715 524.897C905.69 525.472 916.239 525.664 916.335 524.801C916.431 523.938 905.978 522.212 889.002 520.485C880.563 519.622 870.397 518.855 859.176 518.184C847.955 517.608 835.584 517.129 822.541 516.937C809.498 516.841 797.126 516.937 785.905 517.321C774.684 517.704 764.518 518.28 755.983 518.855C738.912 520.102 728.458 521.636 728.554 522.499Z" fill="black" stroke="black" stroke-width="2" stroke-miterlimit="10"/>
<path d="M518.308 682.393C498.718 682.934 482.798 681.955 482.75 680.208C482.702 678.461 498.543 676.607 518.133 676.066C537.723 675.526 553.643 676.504 553.691 678.251C553.739 679.999 537.897 681.853 518.308 682.393Z" fill="black" stroke="black" stroke-width="2" stroke-miterlimit="10"/>
<path d="M745.32 564.432C647.84 563.124 568.836 560.647 568.86 558.899C568.883 557.151 647.925 556.795 745.405 558.103C842.884 559.412 921.888 561.889 921.865 563.637C921.841 565.385 842.799 565.741 745.32 564.432Z" fill="black" stroke="black" stroke-width="2" stroke-miterlimit="10"/>
<path d="M761.689 683.786C664.209 682.478 585.205 680 585.229 678.253C585.252 676.505 664.294 676.149 761.774 677.457C859.253 678.765 938.257 681.243 938.234 682.991C938.21 684.738 859.168 685.095 761.689 683.786Z" fill="black" stroke="black" stroke-width="2" stroke-miterlimit="10"/>
<path d="M375.059 650.56C374.236 620.954 379.928 591.347 372.11 562.287C371.631 560.51 369.71 558.8 367.79 559.005C361.07 559.689 355.789 560.51 349.206 561.399C349.001 558.732 348.794 556.065 348.521 553.399C348.315 551.689 347.355 550.664 346.189 550.253C346.601 548.339 345.846 546.219 343.515 545.877C311.834 541.296 277.89 551.621 246.483 554.971C237.911 555.929 212.265 553.877 203.419 560.441C201.979 560.646 200.47 560.988 199.03 561.193C198.276 560.92 197.316 561.057 196.63 561.604C196.424 561.672 196.219 561.672 196.013 561.74C193.133 562.356 193.27 566.39 195.396 567.552C193.476 595.039 199.099 622.321 196.699 649.945C195.464 664.099 190.253 686.253 197.659 699.723C196.767 700.543 196.493 702.047 197.521 702.868C204.585 708.407 215.831 708.543 226.528 707.449C226.254 708.748 225.98 710.048 225.705 711.347C225.225 714.013 226.871 716.611 229.751 716.68C261.295 717.09 292.976 713.192 324.588 712.646C335.972 712.441 363.881 715.176 370.807 702.868C371.424 701.774 371.356 700.612 370.876 699.586C380.271 688.03 375.471 664.099 375.059 650.56ZM216.379 699.244C211.991 698.902 207.602 698.628 203.282 698.355C203.007 679.62 203.007 661.637 204.585 642.834C206.779 617.74 202.733 592.509 200.882 567.416C202.596 567.279 204.31 567.074 206.025 566.937C216.859 570.082 238.529 564.339 246.483 563.518C278.096 560.373 309.64 552.578 341.458 553.467C339.058 576.441 340.566 600.168 340.566 623.278C340.566 644.885 337.344 669.637 342.692 690.765C342.623 690.765 342.555 690.697 342.418 690.697C313.206 691.175 284.2 694.252 255.056 695.756C242.163 696.509 229.408 698.833 216.379 699.244Z" fill="black"/>
<path d="M327.88 595.109C327.125 590.938 321.571 591.074 319.582 594.015C304.016 617.262 284.747 637.57 266.78 658.971C252.448 645.57 237.568 632.578 220.698 622.732C217.75 620.955 213.91 623.211 213.91 626.63C213.772 643.518 212.95 660.27 215.35 677.022C215.624 678.937 217.887 680.372 219.67 680.305C221.727 680.305 223.853 680.099 225.91 679.963C240.791 684.954 262.597 681.057 276.655 680.168C291.124 679.279 315.33 680.031 326.987 670.458C327.673 669.911 327.947 669.228 327.947 668.544C328.907 667.518 329.456 666.151 329.182 664.51C325 641.467 332.2 618.219 327.88 595.109Z" fill="black"/>
<path d="M273.57 576.578C265.889 565.911 254.026 567.279 244.563 573.433C240.311 574.8 236.403 577.672 233.248 581.911C230.368 585.74 229.477 590.321 230.025 594.766C229.614 599.962 231.465 604.885 236.403 608.304C238.323 610.424 240.586 612.27 243.054 613.501C252.997 618.492 265.409 615.21 272.953 607.62C281.25 599.074 280.153 585.74 273.57 576.578Z" fill="black"/>
</svg>
