<svg xmlns="http://www.w3.org/2000/svg" enable-background="new 0 0 1600 1200" viewBox="0 0 1600 1200"><path stroke="#000" stroke-miterlimit="10" d="M277.4 959.5c0 .2-2.6.9-7.4 1.9-1.2.3-2.6.5-4 .8-1.5.3-3.1.6-4.8.9-3.5.6-7.4 1.3-11.8 1.9-2.2.3-4.5.6-6.9 1-2.4.3-4.9.6-7.5.9-5.2.6-10.7 1.1-16.5 1.6-11.7.9-24.5 1.5-38 1.6-13.5 0-26.4-.5-38-1.2-5.8-.5-11.4-.9-16.5-1.5-2.6-.3-5.1-.5-7.5-.8-2.4-.3-4.7-.6-6.9-.9-4.4-.5-8.3-1.2-11.8-1.8-1.7-.3-3.3-.6-4.8-.8-1.5-.3-2.8-.6-4-.8-4.8-1-7.5-1.6-7.5-1.8 0-.2 2.8 0 7.7.6 1.2.2 2.6.3 4.1.5 1.5.2 3.1.3 4.8.5 3.5.4 7.4.9 11.8 1.3 2.2.2 4.5.5 6.9.7 2.4.2 4.9.4 7.5.6 5.2.5 10.7.8 16.5 1.2 11.6.6 24.4 1 37.8 1 13.4-.1 26.2-.6 37.8-1.4 5.8-.4 11.3-.8 16.5-1.3 2.6-.2 5.1-.4 7.5-.7 2.4-.3 4.7-.5 6.9-.8 4.4-.4 8.3-1 11.8-1.4a209.18 209.18 0 0 0 8.9-1.2c4.6-.6 7.4-.9 7.4-.6zM119.5 992.9c0 .4-3.3.7-8.5.1-5.2-.5-12.4-1.9-20-4.6-1.1-.4-2.1-.8-3.1-1.2l-1.5-.6c-.8-.3-1.6-.7-2.4-1 0-.7-.1-1.4-.1-2.1V979.9c0-1.5 0-2.9.1-4.3.1-2.7.3-5.1.6-7.1.5-4 1.1-6.3 1.5-6.3.4 0 .5 2.4.5 6.4 0 2 .1 4.3.1 7 0 1.3.1 2.7.2 4.2 0 .7.1 1.5.1 2.2 0 .3 0 .7.1 1v.3l.2.1.3.1 1.5.6c1 .4 2 .7 3 1.1 14.7 5.4 27.5 6.7 27.4 7.7z" class="colorStroke000 svgStroke"/><path stroke="#000" stroke-miterlimit="10" d="M125.6 1077.3c-.4.1-2.5-4.6-5.3-12.5s-6.4-18.9-9.9-31.2-6.3-23.5-8-31.7c-1.8-8.2-2.5-13.3-2.1-13.4.9-.2 6.3 19.7 13.3 44.2 6.9 24.5 12.9 44.3 12 44.6zM246.5 994.6c0-.5 2.7-1 7-1.9 2.1-.5 4.7-1.1 7.5-1.9 1.4-.4 2.8-.9 4.3-1.4.7-.3 1.5-.5 2.3-.8.3-.1.7-.3 1-.4l.4-.2c.2-1.4.4-2.8.5-4.1.2-1.6.4-3.1.7-4.6.4-2.9.9-5.6 1.3-7.8.8-4.4 1.6-7.1 2-7.1s.5 2.9.3 7.3c-.1 2.2-.3 4.9-.6 7.9-.1 1.5-.3 3-.5 4.6-.2 1.9-.4 3.8-.7 5.8v.2c-.7.3-1.3.5-1.9.8l-.8.3-.6.2c-.8.3-1.6.6-2.4.8-1.6.5-3.1.9-4.6 1.3-2.9.7-5.6 1.1-7.9 1.3-4.4.4-7.2.1-7.3-.3zM244.5 1073.4c-.9-.2 2-16.9 5.2-37.5 3.3-20.6 5.7-37.4 6.6-37.3.9.1-.1 17.1-3.4 37.8-3.2 20.7-7.5 37.1-8.4 37zM237.8 1080.4c.1.4-5.5 2.9-15.1 5.7-9.6 2.7-23.3 5.5-38.6 6.1-15.3.7-29.1-.8-38.9-2.9-4.9-1.1-8.8-2.6-11.3-3.9-2.5-1.3-3.7-2.4-3.6-2.6.1-.2 1.5.5 4.1 1.4 2.6.9 6.4 2.1 11.2 2.8 9.7 1.4 23.4 2.5 38.4 1.9 15-.6 28.5-2.9 38.1-5 9.6-2.2 15.5-4 15.7-3.5zM172.5 964.1s-.3-.2-.9-.8c-.5-.6-1.2-1.5-2-2.8-1.6-2.6-3.3-7-4-12.8-.4-2.9-.6-6.1-.8-9.6-.2-3.5-.3-7.3-.7-11.3-.4-4-1.1-8.3-2.8-12.5-1.7-4.2-4.5-8.1-7.6-12.2-3.1-4.1-6.6-8.4-8.8-13.9-2.2-5.5-2.5-11.5-3.9-17.2-.7-2.9-1.8-5.6-3.1-8.4-.8-1.3-1.4-2.7-2.3-4-.4-.7-.8-1.3-1.3-2-.5-.6-.9-1.3-1.4-1.9-3.8-5.1-8.4-9.7-13.2-14.6-4.8-4.8-9.8-9.8-14.1-15.7-4.3-5.9-7.7-12.5-11.2-18.9-3.5-6.5-7.2-13-12.3-18.4-2.6-2.6-5.5-4.9-8.8-6.5-.8-.4-1.7-.8-2.5-1.1-.8-.3-1.7-.6-2.5-.7-1.7-.3-3.2-.1-4.3.8-1.2.9-2 2.4-2.5 4.1-.6 1.7-.8 3.6-1.1 5.4-.5 3.8-.7 7.5-.5 11.3.3 7.5 1.8 14.8 4.5 21.5 2.6 6.7 6.4 12.9 10.3 18.9 3.8 6 7.7 11.9 10.6 18.3 1.4 3.2 2.6 6.5 3.3 9.8.3 1.7.6 3.4.8 5.1.2 1.7.2 3.3.3 5 .1 3.3.1 6.4.4 9.4.3 3 .9 5.9 2.3 8.4 1.2 2.6 3 4.9 4.9 6.9 2 2.1 4.1 4 6.2 5.8 4.2 3.6 8.5 7.2 11.7 11.5 1.6 2.2 2.9 4.5 3.7 6.9.8 2.5 1.1 4.9 1.5 7.2.3 2.3.6 4.5 1.1 6.5.6 2 1.4 3.9 2.4 5.6 2 3.4 4.6 6.1 7.4 8.1 1.4 1 2.8 1.8 4.3 2.4 1.4.6 2.8 1 4.2 1.5 2.8.8 5.2 1.6 7.3 2.5 2.1.9 3.7 2.1 4.7 3.3 1 1.2 1.3 2.5 1.4 3.3 0 .8-.1 1.2-.1 1.2-.1 0-.1-.4-.2-1.1-.2-.7-.6-1.8-1.6-2.9-1-1.1-2.6-2-4.6-2.8-2-.8-4.5-1.5-7.3-2.2-2.8-.7-6-1.7-9-3.8-3-2-5.9-4.8-8.1-8.4-1.1-1.8-2-3.8-2.7-6-.7-2.2-1-4.5-1.3-6.8-.3-2.3-.7-4.6-1.5-6.8s-2-4.3-3.5-6.3c-3-3.9-7.2-7.3-11.5-10.9-2.2-1.8-4.3-3.7-6.4-5.9-2.1-2.2-4-4.7-5.4-7.6-1.5-2.9-2.2-6.1-2.6-9.3-.4-3.2-.4-6.4-.5-9.6-.1-1.6-.1-3.2-.3-4.8-.1-1.6-.5-3.1-.8-4.7-.7-3.1-1.8-6.2-3.2-9.2-2.8-6.1-6.6-11.9-10.4-17.9-3.9-6-7.9-12.3-10.6-19.4-2.8-7.1-4.4-14.7-4.7-22.6-.2-3.9 0-7.9.5-11.8.2-1 .3-2 .5-3s.4-2 .8-3c.6-2 1.7-4.2 3.7-5.7 1-.8 2.2-1.3 3.4-1.5 1.2-.2 2.4-.2 3.5 0s2.1.5 3.1.8c1 .4 1.9.8 2.8 1.2 3.7 1.8 6.9 4.3 9.7 7.2 2.8 2.9 5 6.1 7.1 9.3 2.1 3.2 3.9 6.5 5.7 9.8 3.5 6.5 6.8 13 10.9 18.6 4.1 5.6 9 10.6 13.8 15.4 4.8 4.9 9.5 9.7 13.4 15 .5.7 1 1.3 1.4 2 .4.7.9 1.4 1.3 2.1.9 1.3 1.6 2.8 2.4 4.2 1.4 2.9 2.5 5.9 3.2 9 1.4 6.1 1.7 11.9 3.7 17 1.9 5 5.2 9.3 8.3 13.5 3.1 4.1 6 8.3 7.7 12.8 1.7 4.5 2.3 9 2.7 13.1.3 4.1.3 8 .4 11.5.1 3.5.2 6.7.5 9.5.5 5.7 2 9.9 3.3 12.6.8 2.6 1.9 3.9 1.8 4z" class="colorStroke000 svgStroke"/><path stroke="#000" stroke-miterlimit="10" d="M179.1 937.3c-.1 0 .2-1.4.9-4s1.7-6.4 3.1-11.3c2.8-9.8 7-24 12.2-41.5 2.6-8.7 5.5-18.3 8.5-28.6 1.5-5.1 3.1-10.4 4.1-15.9.5-2.8.9-5.6 1.1-8.4.2-2.9.1-5.8-.1-8.7-.4-5.9-1.6-12-2.4-18.3-.4-3.2-.8-6.4-.9-9.7-.1-1.6-.1-3.3 0-5 0-1.7.2-3.3.4-5 .7-6.7 2.3-13.2 3.8-19.8 1.5-6.6 3.1-13.2 3.7-20 .3-3.4.3-6.8 0-10.1s-.7-6.7-2.6-8.5c-.9-.9-2.3-1.5-3.7-1.8-1.4-.3-2.9-.2-4.4 0-1.5.3-2.9.7-4.3 1.4s-2.7 1.5-3.8 2.5c-2.4 1.9-4.4 4.3-6 6.9-1.7 2.6-2.9 5.4-4 8.3-2.1 5.8-3.4 11.9-5.5 17.7-1 2.9-2.3 5.7-3.7 8.4-1.5 2.6-3.1 5.1-4.7 7.5-3.2 4.7-6.5 9.2-8.8 13.9-2.4 4.6-3.5 9.6-4.3 14.5-.8 4.9-1.3 9.7-2.3 14.2-1 4.6-2.6 8.7-4.1 12.5-1.6 3.8-3.1 7.4-4.4 10.7-1.3 3.4-2.4 6.5-3.1 9.5-.7 3-1.1 5.8-1.1 8.3-.2 5 .8 8.9 1.8 11.3 1 2.5 1.8 3.6 1.7 3.7 0 0-.3-.2-.7-.8-.2-.3-.5-.6-.7-1.1-.3-.4-.6-1-.9-1.6-1.2-2.4-2.5-6.4-2.5-11.6 0-2.6.3-5.5.9-8.6.6-3.1 1.6-6.4 2.9-9.8 1.2-3.4 2.8-7 4.2-10.8 1.5-3.8 2.9-7.9 3.8-12.2.9-4.4 1.3-9.1 2.1-14.1.4-2.5.8-5 1.5-7.6.7-2.6 1.6-5.2 2.8-7.6 4.8-10 13.2-18.3 16.8-29.5 2-5.6 3.2-11.6 5.4-17.7 2.1-6.1 5.5-12.2 10.9-16.7 1.3-1.1 2.9-2.1 4.5-2.9 1.6-.8 3.4-1.3 5.2-1.7 1.8-.3 3.7-.4 5.6 0 1.9.4 3.8 1.2 5.3 2.6 1.6 1.4 2.4 3.4 2.8 5.2.5 1.8.6 3.6.8 5.3.3 3.5.3 7.1 0 10.7-.6 7.1-2.2 13.9-3.8 20.5-1.5 6.6-3.1 13.1-3.8 19.5-1.7 12.8 2 25.1 2.8 37.3.2 3.1.3 6.1 0 9.1-.2 3-.7 5.9-1.2 8.8-1.1 5.7-2.8 11.1-4.4 16.2-3.2 10.2-6.2 19.8-8.9 28.5-5.5 17.4-10 31.5-13.1 41.2-1.6 4.9-2.8 8.6-3.7 11.1-1.1 2.3-1.6 3.6-1.7 3.6z" class="colorStroke000 svgStroke"/><path stroke="#000" stroke-miterlimit="10" d="M205.8 967.2c-.1 0 0-.4.2-1 .1-.3.2-.7.4-1.2s.5-1 .8-1.6c1.2-2.4 3.9-5.4 7.9-8.4 2-1.5 4.3-3.1 6.7-4.9 2.4-1.8 5-3.8 7.2-6.4 2.3-2.5 3.9-5.9 5.2-9.6 1.3-3.7 2.4-7.8 4-12.1.4-1.1.9-2.1 1.4-3.2.5-1.1 1.1-2.1 1.7-3.1 1.2-2 2.6-4.1 4.1-6 3-3.9 6.4-7.6 9.7-11.6 3.3-4 6.5-8.2 8.7-13.2 2.3-4.9 3.6-10.4 4.6-16.1 1-5.7 1.6-11.7 2.7-17.8.5-3.1 1.2-6.2 2.1-9.2.2-.8.5-1.5.7-2.3.3-.8.5-1.5.8-2.3.5-1.5 1.2-3 1.9-4.5 1.4-2.9 2.8-5.8 4.1-8.7 1.2-2.9 2.2-5.9 2.6-9 .4-2.9-.4-6-1.8-8.7-1.5-2.6-3.7-4.9-6.4-5.6-1.3-.4-2.7-.2-4.1.2-1.3.5-2.6 1.3-3.7 2.3-2.3 2-4.4 4.7-6.6 7.1-4.3 5-8.3 10.1-12 15.2-3.8 5.1-7.2 10.3-10.4 15.5-3.2 5.2-6.2 10.4-8.9 15.6-5.4 10.4-9.7 20.6-13.3 30.4-1.8 4.9-3.5 9.7-5.8 14.1a42.8 42.8 0 0 1-3.8 6.2c-1.4 1.9-3 3.7-4.6 5.3-3.2 3.2-6.4 6-9.2 8.7-2.8 2.8-5.3 5.5-7.5 8.3-4.3 5.5-7.2 10.8-9.3 15.3-2 4.5-3.3 8.1-4 10.6-.8 2.5-1.1 3.8-1.2 3.8-.1 0 0-1.4.6-4s1.6-6.3 3.5-11c1.9-4.6 4.7-10.1 9-15.9 2.1-2.9 4.6-5.8 7.5-8.7 2.8-2.9 6-5.7 9-8.9 1.5-1.6 3-3.3 4.3-5.1 1.3-1.8 2.5-3.8 3.6-5.9 2.1-4.2 3.8-8.9 5.5-13.9 3.4-9.9 7.8-20.3 13.1-30.8 2.7-5.3 5.7-10.5 8.9-15.8 3.2-5.3 6.7-10.6 10.5-15.8 3.8-5.2 7.8-10.4 12.2-15.4 1.1-1.2 2.2-2.5 3.3-3.8 1.1-1.3 2.3-2.5 3.6-3.7 1.4-1.2 2.9-2.3 4.8-2.9 1.9-.6 4-.8 5.9-.3 2 .5 3.7 1.6 5.1 2.8 1.4 1.3 2.5 2.8 3.4 4.4.9 1.6 1.5 3.3 1.9 5.1.4 1.8.5 3.7.3 5.4-.4 3.5-1.5 6.8-2.8 9.9-1.3 3.1-2.8 5.9-4.2 8.8-2.7 5.6-4.3 11.6-5.3 17.6-1.1 6-1.8 12-2.8 17.8-1.1 5.8-2.5 11.6-5 16.8-2.4 5.2-5.8 9.7-9.2 13.7-3.4 4-6.9 7.7-9.8 11.4-1.5 1.9-2.8 3.8-4 5.7-.6 1-1.2 1.9-1.6 2.9-.5 1-1 2-1.4 3-1.6 4-2.8 8.1-4.2 11.9-1.4 3.8-3.3 7.3-5.8 10-2.4 2.7-5.2 4.7-7.7 6.4-2.5 1.7-4.8 3.2-6.9 4.6-4 2.8-6.8 5.5-8.1 7.7-.3.6-.6 1-.9 1.5-.3.4-.4.8-.5 1.1-.5 1-.7 1.3-.7 1.3zM150.7 896.6c-.4.2-2.3-2.5-3.9-7.5-.8-2.5-1.5-5.5-2-8.9-.5-3.4-1-7.1-1.5-10.9-.4-3.9-.9-7.5-1.1-11-.2-3.4 0-6.6.4-9.2.8-5.2 2.2-8.1 2.6-8 .5.1-.1 3.2-.3 8.2-.1 2.5-.1 5.5.3 8.7.3 3.3.9 7 1.3 10.8.4 3.9.8 7.5 1.2 10.9.4 3.3.8 6.3 1.3 8.7 1 5.1 2.2 8 1.7 8.2z" class="colorStroke000 svgStroke"/><path stroke="#000" stroke-miterlimit="10" d="M169.1 957.6c-.8-.3 4.3-16.6 11.5-36.4 7.2-19.8 13.7-35.6 14.6-35.3.8.3-4.3 16.6-11.5 36.4-7.3 19.8-13.8 35.6-14.6 35.3z" class="colorStroke000 svgStroke"/><path stroke="#000" stroke-miterlimit="10" d="M173.7 965.8c-.3.3-1.1.1-2-.7-.9-.8-1.8-2.1-2.2-3.8-.5-1.7-.4-3.3 0-4.4.3-1.1.9-1.7 1.3-1.6.9.2 1.1 2.6 1.8 5.2.8 2.5 1.8 4.7 1.1 5.3zM186.3 966.2c-.1.1-1-2.2-.3-6.4.4-2.1 1.2-4.5 2.5-7.1 1.3-2.6 3.2-5.4 5.4-8.3 8.8-11.4 21.1-27.1 33.3-45.3 6.1-9.1 11.6-18 16.3-26.2 4.7-8.2 8.5-15.9 11.6-22.4 6-13 9-21.4 9.5-21.3.2.1-.3 2.2-1.5 6.1-.5 2-1.4 4.3-2.4 7-.9 2.7-2.2 5.7-3.5 9.1-2.8 6.7-6.4 14.5-11 22.9-4.6 8.4-10 17.4-16.2 26.6-12.3 18.3-25 33.9-34.2 44.9-2.3 2.8-4.2 5.3-5.6 7.7-1.4 2.4-2.4 4.6-2.9 6.5-1.1 3.9-.7 6.2-1 6.2zM156.3 949.3c-.5.1-2.1-6.2-6.8-15.6-2.3-4.7-5.4-10.1-9-16-3.7-5.9-7.7-12.4-11.9-19.3-8.4-13.7-15.9-26.2-21.2-35.4-1.3-2.3-2.5-4.4-3.5-6.3-.9-1.9-1.6-3.6-2.1-5.1-.9-2.9-.9-4.6-.7-4.6.2 0 .6 1.5 1.8 4.2.6 1.3 1.4 2.9 2.5 4.7 1.1 1.8 2.4 3.7 3.8 6 5.8 8.8 13.6 21.2 22 34.9 4.2 6.9 8.2 13.4 11.7 19.4 3.5 6 6.5 11.7 8.5 16.6 4.5 9.7 5.3 16.4 4.9 16.5zM166.1 902.4c-.4 0-1-7.3 0-19.1.5-5.9 1.5-12.8 3-20.5 1.5-7.7 3.5-16 5.7-24.7 4.5-17.3 8.9-32.9 12.2-44.2 3.3-11.3 5.5-18.2 6-18.1s-1 7.2-3.7 18.6c-2.7 11.4-6.7 27.1-11.2 44.4-2.2 8.6-4.3 16.9-5.9 24.4-1.6 7.5-2.8 14.4-3.7 20.2-1.7 11.8-1.9 19-2.4 19zM257.9 992.4c.1.4-4.9 2.2-13.4 3.5-8.5 1.3-20.2 1.8-33.2 2.3-12.9.5-24.6.8-33.1.8s-13.7-.2-13.8-.6c0-.4 5.2-1.1 13.7-1.7 8.5-.6 20.2-1.2 33.1-1.7 12.9-.5 24.6-.6 33-1.3 8.5-.8 13.6-1.8 13.7-1.3z" class="colorStroke000 svgStroke"/><path stroke="#000" stroke-miterlimit="10" d="M257.1 998.5c.1.4-4.9 1.9-13.2 3.4-4.1.8-9.1 1.4-14.7 2-5.5.5-11.7.9-18.1 1-6.4 0-12.6-.2-18.1-.6-5.6-.5-10.5-1-14.7-1.7-8.3-1.3-13.3-2.7-13.3-3.1.2-1 20.6 2.5 46 2.2 25.5-.3 45.9-4.2 46.1-3.2z" class="colorStroke000 svgStroke"/><path stroke="#000" stroke-miterlimit="10" d="M254.2 996.2c.1.4-4.2 1.9-11.3 3.4-3.6.8-7.9 1.5-12.6 2.1-4.8.6-10.1 1-15.7 1.2-5.6.2-10.9.1-15.7-.1-4.8-.3-9.1-.7-12.8-1.2-7.2-1-11.6-2.1-11.5-2.6.1-1 17.9 1.5 39.9.6 21.9-.7 39.5-4.3 39.7-3.4z" class="colorStroke000 svgStroke"/><path stroke="#000" stroke-miterlimit="10" d="M256.4 995.6c.1.9-15.5 2.6-34.7 3.9-4.8.3-9.4.6-13.6.7-4.2.2-8 .1-11.2-.2-6.5-.6-10.2-2.4-10-2.8.1-.5 3.9.5 10.1.5 6.2.1 14.9-.9 24.5-1.5 19.2-1.2 34.9-1.5 34.9-.6z" class="colorStroke000 svgStroke"/><ellipse cx="254.6" cy="996.7" stroke="#000" stroke-miterlimit="10" rx="1.1" ry="1.6" transform="rotate(71.567 254.629 996.733)" class="colorStroke000 svgStroke"/><ellipse cx="252.5" cy="997.8" stroke="#000" stroke-miterlimit="10" rx="1.8" ry="1.6" class="colorStroke000 svgStroke"/><path stroke="#000" stroke-miterlimit="10" d="M257.1 1086.2c.1.4-5 2-13.4 3.8-4.2.9-9.3 1.8-14.9 2.5s-11.9 1.4-18.4 1.7c-6.6.4-12.8.4-18.5.3-5.7-.1-10.8-.4-15.1-.9-8.6-.8-13.8-1.9-13.7-2.3.1-1 21.2 1.1 47.2-.4 25.9-1.3 46.6-5.7 46.8-4.7z" class="colorStroke000 svgStroke"/><path stroke="#000" stroke-miterlimit="10" d="M243.9 1080.8c.2.4-1.5 2-4.8 4s-8.2 4.2-14 5.6c-5.8 1.4-11.2 1.6-15.1 1.4-1-.1-1.8-.1-2.6-.3-.4-.1-.7-.1-1.1-.2-.3-.1-.7-.1-.8-.2-.2 0-.4 0-.5.1-.1.1 0 .2.1.2s.2 0 .2-.1v-.2c0-.1 0-.1-.1-.1h-.1l-.1-.1c-.1 0-.2-.1-.2-.1-.2-.1-.3-.3-.2-.5.1-.2.4-.4.8-.4.4-.1.6-.1.9-.1.3 0 .7-.1 1-.1.7 0 1.6-.1 2.5-.2 3.7-.3 8.8-.9 14.3-2.2 11.2-2.6 19.3-7.3 19.8-6.5z" class="colorStroke000 svgStroke"/><path stroke="#000" stroke-miterlimit="10" d="M246.8 1077.9c.4.8-6.7 5.2-16.4 8.5s-18.1 4-18.2 3.1c-.2-.9 7.7-3 17.2-6.2 9.4-3.2 17-6.3 17.4-5.4zM249.2 1081.2c.4.8-3.6 3.9-9.3 6.1-5.8 2.2-10.8 2.6-11 1.7-.2-.9 4.3-2.6 9.8-4.8 5.5-2.1 10-3.8 10.5-3z" class="colorStroke000 svgStroke"/><path stroke="#000" stroke-miterlimit="10" d="M252.9 1082.8c.4.8-3.2 3.5-8.3 5.3-5.1 1.8-9.6 2-9.8 1.2-.2-.9 3.8-2.5 8.7-4.2 4.9-1.8 9-3.1 9.4-2.3zM587.1 581.5c.8.4-2.7 9.4-7.1 20.5-4.4 11.1-7.9 20.1-8.8 19.8-.8-.3 1.3-9.8 5.8-21 4.4-11.3 9.3-19.7 10.1-19.3zM617.6 600.3c.4.8-9.2 6.4-19.7 15-10.6 8.5-18.1 16.8-18.8 16.2-.3-.3 1.1-2.7 4-6.2s7.3-8.1 12.7-12.5c5.4-4.4 10.8-7.7 14.8-9.8 4.1-2.2 6.8-3.1 7-2.7z" class="colorStroke000 svgStroke"/><ellipse cx="630.9" cy="626.8" stroke="#000" stroke-miterlimit="10" rx="28.5" ry="1.6" transform="rotate(-15.225 630.92 626.783)" class="colorStroke000 svgStroke"/><path stroke="#000" stroke-miterlimit="10" d="M1353.6 925.8c-.1-.1.1-.4.6-.9.4-.5 1.1-1.2 1.9-2.1 1.6-1.8 3.8-4.6 5.7-8.4 1-1.9 2-4.1 2.8-6.5.9-2.4 1.7-5 2.3-7.8 1.4-5.6 2.3-11.9 3.5-18.5 1.1-6.7 2.5-13.1 4.6-18.7 2.1-5.6 4.9-10.3 8-13.8 1.5-1.7 3.3-3.1 5.2-3.7 1.9-.7 3.7-.5 4.9 0 1.3.5 2.1 1.3 2.5 1.9.4.6.4 1 .3 1-.2.2-.9-1.2-3.1-1.7-1.1-.2-2.5-.2-3.9.5s-2.8 1.9-4.1 3.5c-2.6 3.4-5.1 7.9-6.9 13.3-1.9 5.4-3.1 11.6-4.2 18.2s-2.1 13-3.8 18.8c-.8 2.9-1.7 5.5-2.7 8-1 2.5-2.1 4.7-3.3 6.6-2.4 3.9-4.9 6.6-6.9 8.2-1 .8-1.8 1.4-2.4 1.7-.6.4-.9.5-1 .4zM1468.6 948.2c.1.1-.2.4-.9.9-.3.2-.7.5-1.2.9-.5.3-1 .7-1.7 1-2.6 1.5-6.7 3.3-11.9 4.7-1.3.4-2.7.6-4.2.9-1.5.3-3 .5-4.6.7-3.2.3-6.6.6-10.2.5-7.2 0-15-.9-23.1-2.3-4-.7-8-1.5-11.7-2.4-3.8-.9-7.4-2-10.8-3.1-6.8-2.3-12.6-5.1-17.2-8.1-4.5-3-7.8-5.9-9.8-8.2-.3-.3-.5-.5-.7-.8-.2-.3-.4-.5-.6-.7-.4-.5-.6-.9-.9-1.2-.5-.7-.6-1-.6-1.1.1-.1.4.2 1.1.7.3.3.7.6 1.1 1 .2.2.4.4.7.6.3.2.5.4.8.7 2.2 2 5.6 4.5 10.1 7.2 4.5 2.6 10.3 5.1 16.9 7.2 3.3 1 6.9 2 10.6 2.8 3.7.8 7.6 1.6 11.6 2.3 8 1.4 15.6 2.3 22.5 2.5 3.5.1 6.8 0 9.8-.2 1.5-.2 3-.3 4.4-.5 1.4-.2 2.8-.4 4.1-.7 5.1-1 9.2-2.4 11.9-3.6.7-.3 1.3-.5 1.8-.8.5-.2 1-.4 1.3-.6.9-.3 1.3-.4 1.4-.3zM1491.5 862.2c-.3.5-4.2-1.5-11-2.8-3.4-.6-7.5-1-12.1-1s-9.7.3-15 .8c-5.4.4-10.5.9-15.2.9-4.7.1-9-.1-12.6-.6-3.5-.4-6.6-1.3-8.3-2.6-.9-.6-1.4-1.3-1.7-1.8-.3-.5-.3-.8-.2-.8.2-.2.9.7 2.6 1.5 1.7.8 4.3 1.3 7.8 1.4 3.5.3 7.6.1 12.2-.1s9.7-.8 15.1-1.2c5.4-.4 10.6-.7 15.3-.5 4.7.1 9 .8 12.5 1.7 7.2 2 10.8 4.8 10.6 5.1zM1482.4 943.8c-.4.1-1.4-3.9-2.1-10.4-.2-1.6-.3-3.4-.3-5.3-.1-1.9-.1-4-.1-6.1.1-4.3.5-9.1 1.2-14 .8-4.9 1.8-9.6 3-13.7.6-2.1 1.2-4 1.9-5.8.6-1.8 1.3-3.5 1.9-5 2.5-6 4.7-9.5 5-9.3.4.2-1 4-2.9 10.1-.5 1.5-1 3.2-1.5 5-.5 1.8-1 3.8-1.5 5.8-1 4.1-1.9 8.7-2.7 13.5-.7 4.8-1.2 9.4-1.4 13.6-.1 2.1-.2 4.1-.2 6-.1 1.9-.1 3.6-.1 5.2.1 6.4.3 10.4-.2 10.4zM1498.1 1071.7c-.2-.2 1.4-2 3.5-5.7 1-1.9 2.1-4.3 3.1-7.1.9-2.9 1.7-6.3 2.1-10.1.4-3.8.5-8 .2-12.5s-1-9.3-2-14.3c-.9-5-2.1-10.3-3.2-15.9-1-5.5-2-11.3-2.7-17.2-3-23.7-3.2-45.4-3.1-61 .1-7.8.2-14.1.4-18.5s.4-6.8.6-6.8c.2 0 .4 2.4.6 6.8.2 4.4.4 10.7.6 18.5.5 15.6 1.1 37.1 4 60.6.7 5.9 1.6 11.6 2.6 17.1 1 5.5 2.1 10.8 3 15.9.9 5.1 1.5 10 1.7 14.7.2 4.6 0 9-.6 13-.6 3.9-1.6 7.4-2.7 10.4-1.2 2.9-2.5 5.4-3.7 7.2-2.3 3.5-4.3 5-4.4 4.9z" class="colorStroke000 svgStroke"/><path stroke="#000" stroke-miterlimit="10" d="M1367.2 962.4c-.4.2-1.6-1.3-2.5-4.3-.2-.7-.4-1.5-.6-2.4-.2-.9-.2-1.8-.3-2.8-.1-2 .1-4.3.5-6.5.5-2.3 1.3-4.4 2.2-6.2.5-.9.9-1.7 1.5-2.5.5-.8 1-1.4 1.5-2 2-2.3 3.7-3.2 4-2.9.3.4-.7 1.8-2.1 4.2-.3.6-.7 1.3-1.1 2-.4.7-.7 1.5-1.1 2.3-.7 1.7-1.3 3.6-1.7 5.6-.4 2-.6 4-.7 5.8v2.6c0 .8.1 1.6.1 2.3.3 2.9.7 4.6.3 4.8zM1377.1 968.1c-.4.2-1.7-1.5-2.8-4.6-.3-.8-.5-1.7-.7-2.7-.2-1-.3-2-.5-3.1-.2-2.2-.1-4.7.3-7.2.5-2.5 1.2-4.9 2.1-6.9.5-1 .9-2 1.5-2.8.5-.9 1-1.6 1.6-2.3 2.1-2.6 3.9-3.7 4.2-3.4.4.3-.8 2-2.3 4.7-.4.7-.8 1.4-1.1 2.3-.4.8-.7 1.7-1.1 2.7-.7 1.9-1.3 4-1.7 6.3-.4 2.3-.5 4.5-.5 6.5 0 1 0 2 .1 2.9.1.9.2 1.7.3 2.5.5 3 1.1 4.9.6 5.1zM1431.7 968c-.4.1-1.1-1.1-1.6-3.1-.5-2.1-.7-5-.1-8.2.6-3.2 1.8-5.9 3-7.7 1.2-1.8 2.2-2.6 2.6-2.4.8.5-1.4 4.9-2.4 10.6-1.1 5.7-.6 10.6-1.5 10.8zM1447.3 970.8c-.4.2-1.5-1.2-2.4-3.8-.5-1.3-.8-2.9-1-4.7-.2-1.8-.2-3.8.1-5.9.3-2.1.8-4 1.5-5.7.7-1.7 1.4-3.1 2.2-4.3 1.6-2.3 3-3.3 3.3-3 .4.3-.3 1.8-1.3 4.1-.5 1.2-1 2.6-1.4 4.1-.4 1.6-.8 3.3-1.1 5.2-.2 1.9-.3 3.7-.3 5.3 0 1.6.1 3.1.3 4.4.3 2.5.5 4.1.1 4.3zM1359.1 992.3c-.9-.4.9-5.8 1.8-12.6 1-6.8.8-12.5 1.7-12.6.4-.1 1.1 1.3 1.5 3.7.4 2.4.5 5.7 0 9.4-.5 3.6-1.6 6.8-2.6 9s-2 3.3-2.4 3.1zM1343.1 1065.9c-.4 0-1.4-4.1-1.8-11-.1-1.7-.2-3.6-.2-5.6 0-2 .1-4.2.2-6.5.3-4.6.8-9.6 1.8-14.8 1-5.2 2.3-10.1 3.6-14.4.7-2.2 1.4-4.2 2.2-6.1.7-1.9 1.5-3.6 2.2-5.2 2.9-6.3 5.3-9.8 5.6-9.6.4.2-1.2 4.1-3.5 10.5-.6 1.6-1.2 3.3-1.8 5.2-.6 1.9-1.2 3.9-1.9 6.1-1.2 4.3-2.4 9.1-3.3 14.1-.9 5.1-1.6 9.9-2 14.4-.2 2.2-.4 4.3-.5 6.3-.1 2-.2 3.8-.2 5.5-.1 6.9 0 11.1-.4 11.1zM1476 1081.8c.1.1-.3.4-1 1-.4.3-.8.6-1.4 1.1-.6.4-1.2.8-2 1.3-3 1.9-7.5 4.4-13.5 6.6-3 1.1-6.3 2.1-10 3-3.7.9-7.6 1.6-11.8 2-8.4 1-17.7.9-27.4-.1-9.7-1.1-18.7-3-26.8-5-4.1-1-7.9-2.1-11.4-3.2-3.6-1.1-6.9-2.2-9.8-3.4-3-1.2-5.6-2.6-7.7-3.9-2.2-1.4-3.8-2.8-5.1-4.1-2.5-2.6-3.3-4.5-3.1-4.6.2-.2 1.4 1.4 4 3.7 1.3 1.1 3 2.3 5.2 3.5 2.1 1.2 4.7 2.3 7.6 3.4 2.9 1 6.2 2 9.8 2.9 3.6.9 7.4 1.9 11.4 2.9 8.1 1.9 17 3.7 26.4 4.7 9.4 1 18.5 1.2 26.7.4 4.1-.4 7.9-1 11.5-1.7 3.6-.7 6.9-1.6 9.8-2.5 5.9-1.9 10.5-4 13.7-5.5.8-.4 1.5-.7 2.1-1 .6-.3 1.1-.6 1.5-.8.8-.6 1.3-.8 1.3-.7zM1438.4 1060.1c-.5 0-.4-6.2-1-16.2-.1-2.5-.3-5.2-.6-8.1-.3-2.9-.5-6-1.5-8.9-.9-2.9-2.9-5.3-5.8-6.9-2.9-1.5-6.4-2.2-10.1-2.5-3.7-.3-7.5-.3-11.1-.5-3.6-.2-7.1-.5-10.4-.8-6.6-.7-12.6-1.6-17.5-2.6-9.9-2-15.8-3.9-15.7-4.3.1-.5 6.2.7 16.1 2.1 4.9.7 10.8 1.4 17.4 1.9 3.3.3 6.7.5 10.3.6 1.8.1 3.6.1 5.5.2 1.9 0 3.8.1 5.7.3 3.9.3 7.9 1 11.4 3 1.7.9 3.3 2.2 4.5 3.8 1.2 1.5 2.1 3.3 2.6 5 1.1 3.4 1.2 6.7 1.3 9.6.2 3 .2 5.7.2 8.2.1 9.9-.8 16.1-1.3 16.1zM1525.8 1083.8c-.1-.2 2.1-2.2 6.2-5.6 1-.9 2.2-1.8 3.4-2.9.3-.2.5-.4.8-.6l.3-.3.1-.1-.1-.2c-.1-.3-.2-.5-.3-.8-.2-.4-.4-.9-.5-1.3-.7-1.8-1.5-3.7-2.4-5.7-.4-1-.9-2-1.3-3.1l-1.2-3.3c-.8-2.3-1.6-4.7-2.5-7.1-.8-2.5-1.6-5.1-2.4-7.8-.4-1.4-.8-2.7-1.2-4.1-.4-1.4-.7-2.9-1.1-4.3-.7-2.9-1.5-5.9-2.2-9-2.8-12.4-5.1-26.3-7-40.8-1.9-14.5-3.3-28.4-4.7-41-1.3-12.6-2.5-24-3.7-33.5-.3-2.4-.6-4.6-.8-6.8-.3-2.1-.6-4.2-.8-6-.3-1.9-.5-3.6-.7-5.3-.2-1.6-.5-3.1-.7-4.4-.8-5.3-1.1-8.3-.9-8.3.2 0 1 2.8 2.2 8.1.3 1.3.6 2.8 1 4.4.3 1.6.6 3.4 1 5.2.3 1.9.7 3.9 1.1 6 .3 2.1.7 4.4 1.1 6.8 1.5 9.5 2.9 20.8 4.4 33.5 1.5 12.6 3 26.5 4.9 41 1.9 14.5 4.1 28.2 6.7 40.6.7 3.1 1.4 6.1 2.1 9 .4 1.5.6 2.9 1 4.3s.8 2.8 1.1 4.1c.8 2.7 1.4 5.3 2.2 7.8.8 2.5 1.6 4.9 2.3 7.1.4 1.1.7 2.2 1.1 3.3.4 1.1.8 2.1 1.1 3.1.7 2 1.5 3.9 2.1 5.7.4 1.1.8 2.1 1.1 3.1l.2.4c0 .1-.2.2-.3.3-.2.2-.5.4-.7.5l-1.2.9c-1.3 1-2.5 1.8-3.6 2.6-4.6 3-7 4.7-7.2 4.5z" class="colorStroke000 svgStroke"/><ellipse cx="1374.2" cy="940.7" stroke="#000" stroke-miterlimit="10" rx="3.5" ry="1.6" transform="rotate(31.751 1374.269 940.784)" class="colorStroke000 svgStroke"/><path stroke="#000" stroke-miterlimit="10" d="M1379.5 939.1c0 .4-.6.8-1.6.9-1 .1-2.3-.2-3.5-1.1-1.2-.8-2-2-2.3-2.9-.3-.9-.2-1.6.2-1.8.4-.2 1 0 1.6.4.7.4 1.4 1 2.3 1.5.9.6 1.7 1.1 2.3 1.5.6.7 1 1.1 1 1.5z" class="colorStroke000 svgStroke"/><ellipse cx="1375.9" cy="935.5" stroke="#000" stroke-miterlimit="10" rx="2.7" ry="1.6" transform="rotate(26.565 1375.91 935.482)" class="colorStroke000 svgStroke"/><path stroke="#000" stroke-miterlimit="10" d="M1444.4 951.1c.1.9-2.4 2-5.6 1.6-3.2-.4-5.5-2-5.1-2.8.3-.9 2.7-.7 5.5-.4 2.7.3 5.1.7 5.2 1.6z" class="colorStroke000 svgStroke"/><ellipse cx="1442" cy="948.4" stroke="#000" stroke-miterlimit="10" rx="4.8" ry="1.6" transform="rotate(4.772 1441.979 948.342) scale(.99997)" class="colorStroke000 svgStroke"/><ellipse cx="1440.8" cy="948.1" stroke="#000" stroke-miterlimit="10" rx="4.8" ry="1.6" transform="rotate(9.016 1440.678 947.973)" class="colorStroke000 svgStroke"/><path stroke="#000" stroke-miterlimit="10" d="M1384.3 1070.1c0 .4-3.9.5-10-.5-3.1-.5-6.7-1.2-10.7-2.3l-3-.9c-1-.3-2.1-.6-3.2-1.1-1.1-.4-2.3-1-3.4-2-1.1-.9-1.9-2.3-2.3-3.6-.8-2.8-.4-5.2-.2-7.4.3-2.2.5-4.3.7-6.3.5-4 1-7.6 1.4-10.7.9-6.1 1.7-9.8 2.2-9.8s.5 3.9.1 10c-.2 3.1-.4 6.7-.8 10.8-.2 2-.4 4.1-.6 6.3-.2 2.2-.4 4.4.1 6.2.3.9.7 1.6 1.3 2.2.6.6 1.5 1 2.4 1.4.9.4 1.9.7 2.9 1 1 .3 2 .6 2.9.9 3.8 1.2 7.3 2.1 10.3 2.9 6.2 1.7 9.9 2.5 9.9 2.9z" class="colorStroke000 svgStroke"/><path stroke="#000" stroke-miterlimit="10" d="M1422.8 1045.5c-.1.9-14.5.4-32.2-1.9-17.7-2.3-31.8-5.6-31.6-6.5.2-.9 14.4.9 32 3.2 17.6 2.3 31.9 4.3 31.8 5.2z" class="colorStroke000 svgStroke"/><path stroke="#000" stroke-miterlimit="10" d="M1421.7 1047.2c.2-.1.5.1 1 .6s1 1.4 1.3 2.6c.3 1.2.4 2.7.1 4.4-.1.4-.2.8-.4 1.2-.1.2-.1.4-.3.7-.2.3-.3.6-.5.9-.7 1.2-1.6 2.1-2.6 3.1-.5-.5-1-1-1.4-1.5-.5-.5-1-1.2-1.5-1.8-.3-.4-.4-.5-.5-.7-.1-.2-.3-.4-.4-.6-.5-.8-.8-1.7-1.1-2.5-.6-1.7-.8-3.2-.8-4.5 0-2.6.8-4.1 1.2-4 .5.1.6 1.6 1.1 3.8.3 1.1.7 2.4 1.3 3.7.3.7.7 1.3 1.1 2 .1.2.2.3.3.5l.3.4.2.2.2.2c.1-.1.3-.2.4-.4l.1-.1.2-.4c.1-.3.3-.6.4-.9.4-1.2.6-2.3.6-3.3-.2-2.1-.7-3.3-.3-3.6zM1467.5 1064.1c-1-.1-.2-13.4-2-29.5-1.7-16.2-5.4-29-4.4-29.3.4-.1 1.8 2.9 3.5 8.1.8 2.6 1.6 5.7 2.4 9.2.7 3.5 1.4 7.4 1.8 11.6.4 4.1.7 8.1.7 11.7 0 3.6-.1 6.8-.3 9.5-.5 5.4-1.3 8.7-1.7 8.7zM1495.9 996.5c.3.3-1 1.9-3.6 3.8-1.3.9-3 1.8-5 2.7-2 .8-4.2 1.5-6.7 1.9-2.4.4-4.8.5-6.9.4-2.1-.1-4-.5-5.6-.9-3.1-.9-4.8-2-4.6-2.4.2-.5 2.1-.1 5 .1 1.5.1 3.3.2 5.2.2 2-.1 4.1-.2 6.3-.6 2.2-.4 4.3-.9 6.2-1.5 1.9-.6 3.5-1.3 4.9-1.9 2.8-1.2 4.5-2.1 4.8-1.8zM1485.9 1064.9c.3.2.1 1.5-1.2 2.9-.7.7-1.6 1.4-2.8 2-1.2.5-2.6.9-4.1 1-1.5.1-3-.1-4.2-.5-1.2-.4-2.3-1-3-1.7-1.5-1.3-1.9-2.5-1.6-2.8.4-.3 1.3.3 2.8.8.7.3 1.6.5 2.6.7 1 .2 2.1.2 3.3.2 1.2-.1 2.2-.3 3.2-.6s1.8-.7 2.5-1c1.2-.6 2.1-1.3 2.5-1zM1505.8 881.1c-.5.1-1-1.3-1.7-3.4-.7-2.1-1.4-5-2.8-7.8s-3.3-4.8-5-6c-1.6-1.2-2.9-1.7-2.9-2.2 0-.4 1.6-.8 4 .1 2.3.9 5.1 3.2 6.8 6.6 1.7 3.4 2.1 6.6 2.2 8.9 0 2.3-.2 3.7-.6 3.8zM1450 856.6c-.1.2-.8.2-2.2-.1-1.3-.3-3.2-1-5.3-2.2-2.1-1.2-4.5-2.8-7-4.5-2.5-1.8-5.3-3.7-8.3-5.1-3-1.4-6.2-2.2-8.9-2-2.7.2-5.2 1.3-6.8 2.6-1.7 1.3-2.6 2.8-3.1 3.9s-.6 1.9-.9 1.8c-.1 0-.2-.2-.3-.6-.1-.4-.1-.9 0-1.6.2-1.4 1-3.5 2.8-5.3 1.8-1.8 4.6-3.4 8-3.9 3.5-.4 7.2.5 10.6 2.1 3.4 1.6 6.3 3.7 8.7 5.6 2.5 1.9 4.6 3.7 6.5 5 3.6 2.8 6.3 3.9 6.2 4.3zM1502.1 993.4c-.4.1-1.6-6.2-2.9-16.5-1.3-10.2-2.6-24.5-3.4-40.2-.7-15.7-.8-30-.5-40.3.3-10.3.9-16.7 1.3-16.7.5 0 .7 6.4 1 16.7.3 10.3.7 24.5 1.4 40.2.7 15.7 1.7 29.9 2.4 40.1.8 10.3 1.2 16.7.7 16.7z" class="colorStroke000 svgStroke"/><path stroke="#000" stroke-miterlimit="10" stroke-width="2" d="M1507.2 1021.1c-1.7.3-7.6-30.3-10.4-68.5-2.8-38.2-1.4-69.3.3-69.3 1.9 0 3.4 30.9 6.2 68.8 2.7 38 5.7 68.7 3.9 69z" class="colorStroke000 svgStroke"/><path stroke="#000" stroke-miterlimit="10" stroke-width="2" d="M1515.1 1045c-.9.2-3.5-8.4-6.5-22.5-1.5-7.1-3.1-15.5-4.6-25-1.5-9.4-2.9-19.8-4.1-30.8-1.2-11-2-21.4-2.5-31-.5-9.5-.7-18.1-.7-25.4 0-14.5.7-23.4 1.6-23.4 1.9 0 3.4 35.5 8.1 79.1 4.5 43.5 10.6 78.6 8.7 79z" class="colorStroke000 svgStroke"/><path stroke="#000" stroke-miterlimit="10" stroke-width="2" d="M1499.1 1072.1c-.3-.5 1.8-1.7 4.2-4.9 2.4-3.2 5-8.5 5.5-15.7.3-3.6.2-7.6-.2-11.9-.4-4.3-1-9.1-1.5-14.1-1-10-2.1-20.9-3.1-32.4-4-46-5.8-83.5-4-83.6s6.5 37 10.5 83c1 11.5 1.9 22.5 2.6 32.5.3 5 .7 9.7.9 14.2.2 4.5.1 8.9-.6 12.8-.6 3.9-1.8 7.5-3.3 10.3-1.5 2.8-3.3 5-4.9 6.5-1.7 1.5-3.2 2.4-4.2 2.9-1.2.5-1.8.6-1.9.4zM1454.6 951.3c-.3-.9 4.3-3.3 11.3-7.7 1.7-1.1 3.6-2.4 5.5-3.8 1.8-1.4 3.6-3 4.9-4.8.6-.9 1.1-1.9 1.4-3 .3-1.1.5-2.4.7-3.8.2-1.5.3-3 .5-4.6l.6-4.8c1.7-12.9 4.5-24.3 7.1-32.4 2.6-8.1 4.9-12.9 5.7-12.6 1.8.5-3 20.7-6.3 45.9-.4 3.2-.8 6.3-1.2 9.3-.2 1.6-.5 3.2-1.1 4.9-.6 1.7-1.4 3.3-2.5 4.6-2 2.7-4.5 4.4-6.7 5.8-2.3 1.4-4.3 2.4-6.3 3.3-3.9 1.8-7.2 2.9-9.6 3.5-2.5.5-3.9.6-4 .2zM1442.6 858.2c0 .9-1.9 1.8-5.2 2.2-1.6.2-3.6.3-5.8.1-2.2-.2-4.5-.6-7-1.3-2.4-.7-4.6-1.6-6.6-2.6-1.9-1-3.6-2.1-4.8-3.1-2.6-2.1-3.7-3.9-3.2-4.7.5-.8 2.5-.3 5.4.6 2.9.9 6.7 2.3 11 3.5 4.3 1.2 8.2 2.1 11.2 2.9 3 .8 4.9 1.5 5 2.4zM1512.5 1077.1c-.1-.2.2-.7 1.4-.7 1.1 0 2.7 1 3.3 3 .2.5.3 1 .3 1.7 0 .2 0 .4-.1.6 0 .2-.1.3-.1.4v.2l-.1.3c-.1.1-.1.3-.2.4-.5 1.2-1.5 2.2-2.6 3-1.1.8-2.3 1.4-3.5 1.9-1.2.5-2.4 1-3.8 1.6-10.6 4.3-25.9 8.8-43.2 11.1-8.7 1.1-17 1.6-24.6 1.5-7.6 0-14.4-.6-20-1.3-2.8-.4-5.4-.7-7.6-1.2-1.1-.2-2.1-.4-3.1-.6-.5-.1-.9-.2-1.4-.3-.4-.1-.8-.2-1.3-.3-.9-.3-1.8-.8-2.2-1.5-.4-.7-.2-1.4.1-1.7.3-.4.7-.6 1.1-.6.3 0 .6-.1.7-.2 0 0 0-.2-.2-.2-.2-.1-.4 0-.6.3-.1.2-.3.6.1 1 .2.2.4.3.6.4.3.1.5.1.8.1h2.5c1 0 2 .1 3.1.1 2.2.1 4.8.1 7.6.2 5.6.1 12.2.2 19.6-.1 7.4-.3 15.4-.9 23.8-2 16.8-2.2 31.8-5.8 42.5-9 1.3-.4 2.6-.7 3.8-1.1 1.2-.3 2.2-.7 3-1.1.8-.4 1.4-.9 1.8-1.4.4-.5.5-.9.5-1.5-.1-1.1-.7-2-1.2-2.3-.2-.5-.7-.5-.8-.7z" class="colorStroke000 svgStroke"/><path stroke="#000" stroke-miterlimit="10" stroke-width="2" d="M1513.3 1080.7c-.4.2-1.2-.4-2.4-1.5-.6-.6-1.3-1.2-2.2-1.9-.8-.7-1.8-1.3-2.8-1.6-.5-.2-1-.2-1.4-.2-.5 0-.9.1-1.4.4-.5.3-1.2.7-1.9 1.2-.8.5-1.6 1.1-2.5 1.6-3.4 2.2-7.3 4.4-11.5 6.4-8.4 4.2-16.4 6.9-22.4 8.4-3.1.8-5.9.9-7.7.4-1.9-.4-2.7-1.2-2.6-1.6.1-.5 1.1-.5 2.6-.9 1.5-.3 3.6-1 6.2-2.2 5.4-2.5 12.9-5.9 21-9.9 4.1-2 7.9-4 11.4-5.8.9-.5 1.7-.9 2.5-1.3s1.8-1 2.9-1.3c2.3-.8 5.1-.4 6.7.6 1.8 1 2.8 2.3 3.5 3.4.8 1.1 1.2 2.1 1.6 3 .8 1.6.8 2.6.4 2.8z" class="colorStroke000 svgStroke"/><path stroke="#000" stroke-miterlimit="10" stroke-width="2" d="M1509.1 1079.9c.5.8-.7 2.5-3.3 4.4-2.5 1.9-6.5 3.9-11.2 5-4.7 1.1-9.1 1.2-12.2.6-3.1-.5-4.9-1.5-4.9-2.4.1-.9 1.9-1.6 4.8-2.2 2.8-.6 6.7-1.4 10.8-2.4 4.2-1 7.9-2.1 10.7-2.8 2.9-.7 4.9-1 5.3-.2z" class="colorStroke000 svgStroke"/><path stroke="#000" stroke-miterlimit="10" stroke-width="2" d="M1509.9 1080.2c-.4.8-1.4 1.2-2.6 1.4-1.2.2-2.5.3-4 .3s-2.8 0-4-.3c-1.2-.2-2.2-.6-2.6-1.4-.4-.8-.1-1.9 1-3 1.1-1 3.1-1.9 5.4-1.9 2.3 0 4.3.8 5.5 1.8 1.4 1.2 1.8 2.3 1.3 3.1z" class="colorStroke000 svgStroke"/><ellipse cx="1483.4" cy="1088.8" stroke="#000" stroke-miterlimit="10" stroke-width="2" rx="12.6" ry="3.3" transform="rotate(-14.271 1483.5 1088.903)" class="colorStroke000 svgStroke"/><path stroke="#000" stroke-miterlimit="10" stroke-width="2" d="M1514 1082.9c.3.8.2 1.8-.3 2.5-.5.8-1.5 1.4-2.7 1.6-1.2.2-2.3-.2-3.1-.8-.7-.6-1.1-1.5-1-2.4.1-.9.5-1.7 1.1-2.3.6-.6 1.3-1 2-1.1.8-.1 1.6.1 2.3.5.7.6 1.3 1.2 1.7 2zM1434.6 956.7c0 .9-3.2 1.8-8.5 2.2-5.3.4-12.6.2-20.6-1.2-8-1.4-15-3.6-19.8-5.7-4.8-2.1-7.6-4.1-7.3-4.9.7-1.7 12.9 1.6 28.2 4.2 15.2 2.6 27.9 3.6 28 5.4z" class="colorStroke000 svgStroke"/><path stroke="#000" stroke-miterlimit="10" d="M1479.9 1026.7c.2-.1.6.7 1.6 1.5s2.9 1.7 5.2 1.3c2.2-.4 4.5-2.2 5.9-5.1.7-1.4 1.2-3 1.2-4.5s-.7-2.8-2-3.8c-.6-.5-1.4-.9-2.2-1.1-.8-.2-1.6-.4-2.4-.4-1.6 0-3.2.3-4.3 1.1-1.2.8-2.1 1.9-2.8 3.1-.6 1.2-1 2.5-1.1 3.7-.1 1.2 0 2.3.2 3.2.2.9.6 1.7.9 2.3.4.6.7 1 1 1.3.2.3.3.5.3.6-.1.1-.3.1-.7-.1-.4-.1-.9-.5-1.5-1-.6-.6-1.2-1.4-1.7-2.5s-.8-2.4-.8-3.9.2-3.1.9-4.7 1.8-3.3 3.5-4.5c1.7-1.3 3.9-1.8 6.1-1.8 1.1 0 2.2.2 3.3.5 1.1.4 2.2.9 3.1 1.6 1 .8 1.8 1.7 2.3 2.9l.4.9.2.9c.2.6.2 1.2.2 1.8 0 2.3-.8 4.3-1.7 6-1 1.7-2.2 3.2-3.7 4.2s-3.1 1.7-4.7 1.7c-3.1.1-5.4-1.4-6.3-2.7-.7-1.5-.6-2.4-.4-2.5z" class="colorStroke000 svgStroke"/><ellipse cx="1462" cy="982.4" stroke="#000" stroke-miterlimit="10" rx="8" ry="1.6" transform="rotate(82.062 1462.01 982.363)" class="colorStroke000 svgStroke"/><path stroke="#000" stroke-miterlimit="10" d="M1487.9 968.2c.2.9-5.3 3.2-12.3 5.3-3.6 1.1-7.3 1.5-9.9.7-1.3-.4-2.3-1-2.8-1.5s-.7-.9-.6-1.1c.3-.4 1.6.3 3.8.3 2.2.1 5.2-.5 8.6-1.5 7-2.1 12.9-3.1 13.2-2.2zM1491.4 985.2c.2.4-1.1 1.5-3.5 2.8-2.4 1.3-5.9 2.5-10 3.2-4.1.6-7.9.5-10.5.1-2.7-.4-4.2-1.1-4.2-1.6.2-.9 6.5-.5 14.2-1.8 7.6-1.1 13.6-3.5 14-2.7zM1399 921.1c.2-.2 1.2.4 3 1.4 1.8.9 4.6 2.3 8 2.5 1.7.1 3.6-.2 5.3-1 1.7-.9 3.3-2.4 4.3-4.3s1.5-4.2 1.1-6.6c-.3-2.4-1.4-4.7-3-6.7-.8-.9-1.8-1.7-2.8-2.2-1-.5-2.2-.7-3.3-.8-2.3-.1-4.6.7-6.4 2-1.9 1.3-3.4 2.9-4.5 4.6-1.1 1.7-1.9 3.5-2.2 5.1-.3 1.7-.2 3.2.3 4.5.4 1.3 1.1 2.3 1.7 3 .3.4.7.7.9.8.3.2.5.3.8.3.5.1.7-.2.7-.1.1.1 0 .6-.7.7-.3.1-.8.1-1.2-.1-.5-.2-.9-.4-1.4-.8-.9-.7-1.9-1.8-2.5-3.3-.7-1.5-1.1-3.4-.8-5.5.2-2.1 1-4.2 2.2-6.3 1.2-2 2.9-4 5.1-5.6 2.2-1.6 5.1-2.8 8.2-2.7 1.5 0 3.2.3 4.7 1s2.8 1.8 3.9 3c2.1 2.4 3.4 5.4 3.8 8.4.4 3-.3 6.1-1.7 8.5-1.4 2.4-3.5 4.3-5.8 5.3s-4.7 1.1-6.7.9c-4.1-.7-6.8-2.5-8.5-3.8-1.9-1-2.6-2-2.5-2.2z" class="colorStroke000 svgStroke"/><path stroke="#000" stroke-miterlimit="10" d="M1404.5 917.3c-.4.1-.9-.2-1.3-.8-.4-.6-.5-1.6-.4-2.6.2-1 .7-1.9 1.2-2.3.5-.5 1.1-.6 1.5-.3.4.2.6.7.6 1.3.1.6 0 1.2-.1 1.9s-.3 1.3-.5 1.8-.5.9-1 1z" class="colorStroke000 svgStroke"/><ellipse cx="1411.3" cy="916.1" stroke="#000" stroke-miterlimit="10" rx="3.5" ry="1.6" transform="rotate(96.465 1411.395 916.214)" class="colorStroke000 svgStroke"/><path stroke="#000" stroke-miterlimit="10" d="M1532.8 1021.1c-.1 0-.1-.4-.2-1.1-.1-.7-.2-1.9-.2-3.3-.1-2.9.1-7.3 1.2-12.8.5-2.7 1.4-5.7 2.4-9 1.1-3.2 2.4-6.7 4.1-10.3 3.3-7.2 7.7-15.1 12.5-23.7s10.2-18 14.2-28.8c1.9-5.4 3.5-11.1 4.1-17.2.1-1.5.3-3 .3-4.6V908c0-.8-.1-1.5-.1-2.3-.2-3.1-.8-6.2-1.3-9.4-.6-3.2-1.2-6.5-1.5-10-.3-3.5-.1-7 .3-10.5.9-7 3-13.7 4.4-20.6 1.4-6.9 2.1-14 1.7-21.2-.2-3.6-.7-7.2-1.5-10.7-.8-3.5-2.1-7-3.7-10.2-.4-.8-.8-1.6-1.3-2.4l-.7-1.2c-.2-.4-.5-.7-.7-1-.5-.6-1-1.1-1.5-1.2-.4-.1-.7-.1-1.3.2-.5.3-1.2.9-1.8 1.6l-1.8 1.9-.5.5-.4.5-.8 1.1c-.5.7-1.1 1.4-1.6 2.2-3.9 6-6.3 12.7-8 19.5-1.7 6.8-2.8 13.7-4 20.5-1.2 6.8-2.5 13.4-4.5 19.8-2 6.3-4.3 12.2-5.5 18.1-1.3 5.9-1 11.8-.5 17.6.4 5.8 1 11.5.4 17s-2.1 10.7-3.9 15.3c-1.8 4.7-3.8 9-5.7 13-1.9 4-3.6 7.9-5 11.5-2.7 7.3-3.8 14-3.8 19.4 0 2.7.4 5.1.8 7.2.2 1 .5 1.9.8 2.8.3.8.6 1.6.9 2.2.3.7.6 1.2.8 1.7.2.5.5.9.7 1.2.4.6.5 1 .5 1l-.8-.8c-.2-.3-.5-.7-.8-1.1-.3-.5-.6-1-1-1.7-.3-.7-.7-1.4-1-2.2-.3-.9-.7-1.8-1-2.8-.6-2.1-1-4.6-1.1-7.4-.3-5.6.7-12.5 3.3-20.1 1.3-3.8 3-7.6 4.8-11.7 1.8-4.1 3.7-8.4 5.4-13 1.7-4.6 3.1-9.5 3.5-14.8.5-5.2-.1-10.8-.6-16.6-.3-2.9-.5-5.9-.5-9 0-3.1.3-6.3.9-9.4 1.2-6.3 3.6-12.3 5.5-18.5 1.9-6.2 3.1-12.7 4.3-19.4 1.2-6.7 2.2-13.7 3.9-20.7 1.7-7 4.2-14.1 8.4-20.5.5-.8 1.1-1.5 1.7-2.3l.9-1.1.4-.6.5-.5 2-2.1c.6-.7 1.3-1.4 2.4-2.1.5-.3 1.2-.6 1.9-.7.7-.1 1.5 0 2.2.3 1.3.5 2.2 1.4 2.9 2.3.3.4.6.9.9 1.3l.7 1.3c.5.8 1 1.7 1.4 2.6 1.7 3.5 3 7.2 3.9 10.9.9 3.7 1.4 7.5 1.6 11.3.4 7.5-.4 14.9-1.8 22s-3.5 13.8-4.4 20.4c-.5 3.3-.6 6.6-.4 9.8.3 3.2.9 6.5 1.4 9.7.6 3.2 1.2 6.5 1.3 9.8 0 .8.1 1.6.1 2.4v2.4c0 1.6-.2 3.2-.3 4.8-.6 6.3-2.4 12.3-4.4 17.8-4.2 11.1-9.8 20.5-14.7 29-5 8.5-9.5 16.3-12.9 23.3-1.7 3.5-3.1 6.9-4.3 10-1.1 3.1-2.1 6.1-2.7 8.7-1.3 5.3-1.7 9.6-1.8 12.5.1 2.9.2 4.5 0 4.5z" class="colorStroke000 svgStroke"/><path stroke="#000" stroke-miterlimit="10" d="M1532 903.8c-.3-.1.7-3.5.1-9.7-.2-3.1-.9-6.9-2-11.2-1.1-4.3-2.6-9.2-3.8-14.8-.6-2.8-1.1-5.8-1.4-8.9-.3-3.2-.2-6.5 0-9.8.2-3.3.5-6.7.4-10.2-.1-3.4-.7-6.9-1.7-10.4-1.9-7.1-5.3-14.2-7.8-22.1-.6-2-1.2-4-1.6-6.1-.4-2.1-.7-4.2-.9-6.4-.4-4.3-.5-8.6-.7-12.9-.1-2.1-.2-4.3-.4-6.4-.1-1-.2-2.1-.3-3.1-.1-1-.3-2.1-.5-2.9-.5-1.8-1.3-2.6-2.8-2.6-1.5 0-3.2.8-4.6 1.9-1.4 1.2-2.8 2.6-3.9 4.1-1.1 1.5-2 3.2-2.8 4.8-1.6 3.4-2.6 7-3.2 10.6-1.3 7.2-1.4 14.3-2.3 21-.8 6.7-2.5 13-5.6 18-1.5 2.5-3.1 4.7-4.6 6.8-1.4 2.1-2.7 4.1-3.7 6-2.1 3.8-2.5 7.7-2.1 10.7.2 1.5.6 2.8 1.1 3.9.5 1.1 1.1 1.9 1.6 2.5 1.1 1.2 1.9 1.6 1.8 1.8 0 .1-.9-.2-2.3-1.3-.6-.6-1.4-1.4-2-2.5-.6-1.1-1.2-2.5-1.5-4.1-.3-1.6-.4-3.5-.1-5.5.1-1 .3-2 .6-3.1.3-1 .7-2.1 1.2-3.1 1.9-4.2 5.2-8.3 7.9-13.1 2.8-4.8 4.3-10.7 4.9-17.2.4-3.3.6-6.7.8-10.2.2-3.5.5-7.3 1.2-11 .7-3.8 1.6-7.6 3.3-11.4 1.7-3.7 4.2-7.3 7.6-10.1.9-.7 1.9-1.3 3-1.8s2.3-.8 3.7-.8c1.3 0 2.8.5 3.9 1.5s1.7 2.3 2 3.5c.3 1.2.4 2.3.6 3.3.1 1.1.3 2.2.3 3.2.2 2.2.3 4.3.4 6.5.2 4.3.3 8.6.7 12.7.2 2.1.5 4.1.9 6 .4 2 .9 3.9 1.5 5.8 2.3 7.6 5.7 14.8 7.7 22.2 1 3.7 1.6 7.5 1.7 11.1.1 3.7-.3 7.1-.5 10.4-.3 3.3-.5 6.4-.2 9.4.2 3 .6 5.9 1.2 8.6 1.1 5.5 2.4 10.5 3.3 14.9.9 4.4 1.4 8.3 1.5 11.6v2.3c0 .7-.1 1.4-.1 2-.2 1.2-.3 2.3-.5 3.1-.6 1.7-.9 2.5-1 2.5zM1524.4 1014.8c-.2 0-.1-2.6.5-7.2s1.7-11.2 3.6-19.3c1.8-8.1 4.4-17.6 7.6-28 3.1-10.5 6.8-21.9 10.6-33.9 3.7-12 7-23.5 9.4-34.1 2.4-10.6 4-20.2 4.8-28.4 1.7-16.3.7-26.5 1.2-26.6.2 0 .7 2.5 1 7.1.4 4.6.5 11.3 0 19.6s-1.9 18.1-4.2 28.8c-2.3 10.7-5.5 22.3-9.2 34.4-3.7 12-7.5 23.4-10.8 33.8-3.3 10.4-6.1 19.8-8.2 27.7-2.1 7.9-3.6 14.4-4.6 18.9-.9 4.7-1.5 7.2-1.7 7.2z" class="colorStroke000 svgStroke"/><path stroke="#000" stroke-miterlimit="10" d="M1516.3 949c-.5 0-.6-8.6-1.7-22.4-.6-6.9-1.5-15.1-2.7-24.1-1.2-9.1-2.7-19-4.3-29.5-3.2-20.9-5.7-40-6.4-53.9-.2-3.5-.1-6.7.1-9.5s.7-5.2 1.2-7.1c1.1-3.8 2.3-5.7 2.5-5.6.2.1-.6 2.1-1.3 5.9-.3 1.9-.6 4.2-.7 6.9-.1 2.7.1 5.8.4 9.2 1.3 13.7 4.1 32.7 7.3 53.6 1.6 10.5 3 20.5 4.1 29.6 1.1 9.1 1.7 17.4 2 24.4.3 7 .3 12.6.1 16.5-.1 3.9-.4 6-.6 6zM1375.5 970.3c.2.3-.5 1.3-2.3 1.8-.9.3-2 .3-3.2.1-1.2-.2-2.4-.7-3.6-1.4-1.1-.8-2.1-1.8-2.7-2.8-.6-1-1-2.1-1.1-3-.2-1.8.4-2.9.8-2.8.5 0 .8 1 1.4 2.1.2.3.3.6.6.9.2.3.5.6.8 1 .6.6 1.3 1.3 2.1 1.8s1.7.9 2.5 1.2c.4.1.8.3 1.2.3.4.1.7.1 1.1.2 1.2.2 2.2.1 2.4.6zM1445.7 973.6c.3.3-.3 1.4-1.9 2.4-.8.5-1.9.9-3.1 1.2-1.2.2-2.7.2-4.1 0-1.4-.3-2.7-.8-3.8-1.5-1.1-.7-1.9-1.4-2.5-2.2-1.2-1.5-1.3-2.8-.9-3 .4-.2 1.2.5 2.5 1.3.6.4 1.4.8 2.3 1.2.9.4 1.9.7 3 .9 1.1.2 2.2.2 3.1.2 1-.1 1.9-.2 2.6-.3 1.5-.2 2.5-.6 2.8-.2zM352.1 1047c-.1.9-18.5-1.3-41.2-2.8-22.7-1.6-41.2-1.8-41.2-2.7 0-.9 18.6-2.1 41.5-.5 22.8 1.5 41.1 5.2 40.9 6z" class="colorStroke000 svgStroke"/><ellipse cx="330.3" cy="1059" stroke="#000" stroke-miterlimit="10" rx="30.8" ry="1.6" transform="rotate(4.836 330.36 1058.985) scale(.99996)" class="colorStroke000 svgStroke"/><path stroke="#000" stroke-miterlimit="10" d="M671.5 1138.9c0 .4-6.8.7-17.9.5-11-.1-26.3-.7-43-1.9-16.8-1.2-31.9-2.7-42.9-4-10.9-1.4-17.7-2.5-17.6-3 0-.5 6.9-.1 17.8.7 11 .8 26.1 1.9 42.9 3.1 16.8 1.1 31.9 2.1 42.9 2.8 11.1.8 17.9 1.3 17.8 1.8z" class="colorStroke000 svgStroke"/><ellipse cx="664.9" cy="1125.8" stroke="#000" stroke-miterlimit="10" rx="41.2" ry="1.6" transform="rotate(.992 664.795 1125.769) scale(.99995)" class="colorStroke000 svgStroke"/><path stroke="#000" stroke-miterlimit="10" d="M733.9 143.3c.2.4-2.4 2.1-6.5 5-1 .7-2.1 1.5-3.3 2.5-1.2.9-2.4 1.9-3.6 2.9-2.5 2.1-5.2 4.6-7.8 7.3-2.6 2.8-4.9 5.5-6.9 8.2-1 1.3-1.9 2.6-2.8 3.8-.9 1.2-1.6 2.3-2.3 3.4-2.7 4.2-4.3 7-4.7 6.8-.4-.2.4-3.3 2.7-7.9.6-1.2 1.2-2.4 2-3.7.7-1.3 1.7-2.7 2.6-4.1 2-2.8 4.3-5.8 7-8.6 2.7-2.9 5.6-5.3 8.3-7.4 1.4-1 2.7-2 4-2.8 1.3-.9 2.5-1.6 3.6-2.2 4.5-2.6 7.5-3.6 7.7-3.2z" class="colorStroke000 svgStroke"/><ellipse cx="1290.5" cy="1084.6" stroke="#000" stroke-miterlimit="10" rx="64.3" ry="1.6" transform="rotate(.924 1290.677 1084.5) scale(1.00003)" class="colorStroke000 svgStroke"/><ellipse cx="1341.3" cy="1093.9" stroke="#000" stroke-miterlimit="10" rx="40.6" ry="1.6" class="colorStroke000 svgStroke"/><g fill="#000000" class="color000 svgShape"><path stroke="#000" stroke-miterlimit="10" stroke-width="2" d="M494.5 297c.1.9-3.5 2.2-9.4 3.3-6 1.1-14.3 1.9-23.6 1.8-9.3-.1-17.6-1.1-23.6-2.4-5.9-1.2-9.5-2.7-9.4-3.5.3-1.8 15-.8 33-.6 18 .2 32.7-.5 33 1.4z" class="colorStroke000 svgStroke"/><ellipse cx="619.4" cy="299.1" stroke="#000" stroke-miterlimit="10" stroke-width="2" rx="51" ry="3.3" transform="rotate(2.55 619.366 299.098) scale(.99999)" class="colorStroke000 svgStroke"/><path stroke="#000" stroke-miterlimit="10" stroke-width="2" d="M800.3 306.2c.3 1.7-9.8 5-22.7 5.6-12.9.6-23.3-1.7-23.2-3.4.1-1.8 10.4-2.5 22.9-3.1 12.4-.6 22.7-.9 23 .9zM756.1 385.5c0 .4-4.7.7-13.1.7-8.4 0-20.7-.1-35.7-.3-15.1-.2-33-.5-53-.8-19.9-.3-41.9-.5-64.9-.8-23-.2-44.9-.3-64.9-.4-19.9-.1-37.9-.1-53-.2-15.1-.1-27.3-.2-35.7-.4-8.4-.2-13.1-.5-13.1-1s4.6-1 13.1-1.6c8.4-.6 20.6-1.2 35.7-1.7 15.1-.5 33.1-.9 53-1.2 20-.2 41.9-.3 65-.1 23 .2 45 .7 65 1.3 20 .6 37.9 1.4 53 2.2 15.1.8 27.3 1.6 35.7 2.4 8.3.9 13 1.5 12.9 1.9zM840.2 438.7c0 .9-17.6.9-46 .4s-67.5-1.2-110.8-2c-43.3-.5-82.5-1-110.8-1.4-28.4-.4-45.9-.8-45.9-1.8 0-.5 4.4-.9 12.3-1.5 7.9-.5 19.4-1 33.6-1.4 28.4-.8 67.6-1.2 111-.5 43.3.7 82.5 2.2 110.9 3.9 14.2.8 25.6 1.7 33.6 2.4 7.7.8 12.1 1.5 12.1 1.9zM490.4 488.5c.1 1.8-11.3 3.5-25.3 2.2-14-1.3-24.9-5.1-24.5-6.8.4-1.8 11.5-.9 25.1.3 13.5 1.3 24.7 2.5 24.7 4.3z" class="colorStroke000 svgStroke"/><ellipse cx="565.4" cy="490.7" stroke="#000" stroke-miterlimit="10" stroke-width="2" rx="37" ry="3.3" transform="rotate(3.211 565.36 490.663) scale(.99997)" class="colorStroke000 svgStroke"/><path stroke="#000" stroke-miterlimit="10" stroke-width="2" d="M914.2 484.3c-.1.9-11 1-28.8.8-8.8-.1-19.4-.1-31.1-.2-11.7 0-24.5 0-38 .1-13.5.2-26.3.5-38 .8-11.7.4-22.2.7-31.1 1-17.7.6-28.7.8-28.8-.1-.1-.9 10.8-2.7 28.5-4.5 8.8-.9 19.4-1.7 31.1-2.4 11.7-.6 24.6-1.1 38.2-1.3 13.6-.1 26.5 0 38.2.4 11.7.4 22.3 1 31.2 1.6 17.8 1.3 28.7 2.9 28.6 3.8z" class="colorStroke000 svgStroke"/><ellipse cx="1001.3" cy="484" stroke="#000" stroke-miterlimit="10" stroke-width="2" rx="37" ry="3.3" transform="rotate(1.58 1001.325 483.913) scale(.99998)" class="colorStroke000 svgStroke"/><ellipse cx="1160.3" cy="488.1" stroke="#000" stroke-miterlimit="10" stroke-width="2" rx="59.9" ry="3.3" transform="rotate(-.769 1160.367 487.952) scale(.99999)" class="colorStroke000 svgStroke"/><path stroke="#000" stroke-miterlimit="10" stroke-width="2" d="M984.3 310c-.2 1.8-18.1 1.1-40.1-.5s-39.8-3.5-39.8-5.4c0-1.8 18.1-2.8 40.3-1.1 22.1 1.7 39.8 5.3 39.6 7zM788.3 249.9c-.1.9-12 1-31.4.7-19.3-.3-46-.8-75.5-1.3-29.5-.4-56.2-.7-75.5-.9-19.3-.3-31.3-.7-31.3-1.7 0-.9 11.9-2.1 31.3-3 19.4-.9 46.1-1.4 75.7-1 29.6.4 56.3 1.8 75.6 3.2 19.2 1.5 31.1 3.1 31.1 4zM1232.2 394.4c-.2 1.9-39-.9-86.8-1.2-47.9-.4-86.7 2-86.9.1-.1-.9 9.6-2.6 25.3-4.1 7.9-.8 17.2-1.4 27.7-1.9 10.4-.4 21.9-.7 34-.6 12 .1 23.5.5 33.9 1.1 10.4.6 19.8 1.4 27.6 2.2 15.7 1.7 25.3 3.5 25.2 4.4zM1265.8 791.3c0 .2-2 .5-5.9.9-3.9.4-9.7.8-17.1 1.3-7.4.5-16.5 1-27.1 1.5-10.6.5-22.6 1.1-35.9 1.6-13.3.6-27.9 1.1-43.5 1.6-15.6.5-32.4 1-50 1.5-35.2.8-73.9 1.5-114.5 1.8-40.6.3-79.3.2-114.5-.2-17.6-.2-34.3-.4-50-.7-15.7-.3-30.2-.6-43.5-1-13.3-.3-25.3-.8-35.9-1.1-10.6-.4-19.7-.8-27.1-1.1-7.4-.4-13.2-.7-17.1-1-3.9-.3-6-.6-6-.8s2.1-.4 6-.5c3.9-.1 9.7-.2 17.1-.2h27.1c10.6 0 22.6.1 35.9.2 26.6.1 58.3.2 93.5.3 35.2 0 73.9-.1 114.4-.3 40.6-.3 79.3-.8 114.4-1.3 35.2-.6 66.8-1.2 93.5-1.7 13.3-.3 25.3-.5 35.9-.7 10.6-.2 19.7-.3 27.1-.4 7.4-.1 13.2-.1 17.1 0 4-.1 6.1 0 6.1.3zM1040.1 746.7c.1.9-12 2.8-31.7 4.6-4.9.4-10.3.9-16.1 1.3-5.8.4-12 .7-18.5 1.1-13 .6-27.4.9-42.5 1-15.1 0-29.4-.4-42.5-1-6.5-.3-12.7-.6-18.5-1.1-5.8-.4-11.2-.8-16.1-1.3-19.7-1.8-31.7-3.7-31.7-4.6.1-.9 12.3-.6 31.9 0 4.9.1 10.3.3 16.1.5 5.8.1 12 .3 18.5.5 13 .2 27.3.4 42.3.5 15 0 29.3-.2 42.3-.4 6.5-.2 12.7-.3 18.5-.4 5.8-.2 11.2-.3 16.1-.5 19.7-.8 31.9-1.1 31.9-.2z" class="colorStroke000 svgStroke"/><ellipse cx="1127.4" cy="742.8" stroke="#000" stroke-miterlimit="10" stroke-width="2" rx="50" ry="3.3" transform="matrix(.9997 -.02256 .02256 .9997 -16.47 25.62)" class="colorStroke000 svgStroke"/><path stroke="#000" stroke-miterlimit="10" stroke-width="2" d="M1262.8 739.4c.1 1.8-14.6 4.2-33 4.3-18.4.2-33.2-1.9-33.1-3.7.1-1.8 14.9-2.7 33-2.9 18.2 0 33 .5 33.1 2.3z" class="colorStroke000 svgStroke"/><ellipse cx="1036.2" cy="715.1" stroke="#000" stroke-miterlimit="10" stroke-width="2" rx="152.3" ry="3.3" transform="translate(-1.17 1.698)" class="colorStroke000 svgStroke"/><path stroke="#000" stroke-miterlimit="10" stroke-width="2" d="M891.8 855.4c0 .9-11.1 2.3-29.1 3.7-18.1 1.4-43 2.7-70.7 3.4-27.6.7-52.6.6-70.7.1s-29.3-1.4-29.3-2.2c0-.9 11.2-1.7 29.3-2.4s43-1.4 70.6-2c27.6-.7 52.5-1.3 70.6-1.5 18-.2 29.2 0 29.3.9z" class="colorStroke000 svgStroke"/><ellipse cx="1137.8" cy="846.9" stroke="#000" stroke-miterlimit="10" stroke-width="2" rx="134.6" ry="3.3" transform="matrix(.9995 -.03214 .03214 .9995 -26.632 37.007)" class="colorStroke000 svgStroke"/><ellipse cx="956.3" cy="919.5" stroke="#000" stroke-miterlimit="10" stroke-width="2" rx="226.7" ry="3.3" transform="matrix(.9998 -.02126 .02126 .9998 -19.33 20.539)" class="colorStroke000 svgStroke"/><path stroke="#000" stroke-miterlimit="10" d="M746.5 718.9c.2-.2 1.6 1.5 4.5 3.8 1.5 1.2 3.3 2.5 5.7 3.8 2.3 1.2 5.2 2.4 8.4 3 3.2.7 6.9.8 10.7.2 3.8-.7 7.6-2.3 11.1-4.8 3.4-2.6 6.5-6 8.8-10.2 2.3-4.1 4-8.8 4.4-13.8.5-5-.3-9.9-1.9-14.3-1.6-4.4-4-8.4-7-11.4-1.5-1.5-3.2-2.8-4.9-3.9-.4-.3-.9-.5-1.3-.8-.4-.2-.9-.4-1.3-.6-.9-.4-1.8-.7-2.7-1-3.6-1.1-7.4-1.2-10.7-1.3-6.7-.2-11.9 1.7-15.2 3.4-3.3 1.7-5 3.1-5.2 2.9-.1-.1 1.2-1.8 4.5-4 1.6-1.1 3.8-2.2 6.5-3.1 2.7-.9 5.9-1.5 9.4-1.5 1.8 0 3.5 0 5.5.1 1.9.1 4 .4 6 .9 1 .3 2.1.6 3.1 1.1.5.2 1 .4 1.5.7.5.3 1 .5 1.5.8 1.9 1.1 3.8 2.5 5.5 4.2 3.5 3.3 6.2 7.7 8 12.5 1.8 4.8 2.6 10.2 2.1 15.7s-2.3 10.6-4.9 15.1c-2.5 4.5-6 8.2-9.8 11-3.9 2.7-8.3 4.4-12.4 5-4.2.6-8.2.3-11.6-.6-3.5-.9-6.4-2.2-8.8-3.7-2.4-1.5-4.2-3-5.6-4.4-3-2.8-4-4.7-3.9-4.8z" class="colorStroke000 svgStroke"/><ellipse cx="784.1" cy="689.5" stroke="#000" stroke-miterlimit="10" rx="6.2" ry="1.6" transform="matrix(.09195 .9958 -.9958 .09195 1398.606 -154.73)" class="colorStroke000 svgStroke"/><path stroke="#000" stroke-miterlimit="10" stroke-width=".5" d="M757.7 716.8c0-.1.2 0 .7.1.4.1 1 .3 1.7.5 1.5.4 3.7.8 6.5.9 2.8 0 6.1-.4 9.4-1.8 1.7-.7 3.4-1.6 4.9-2.7 1.6-1.1 3.1-2.5 3.8-4.3.6-1.8.2-3.8-1.2-4.6-.7-.4-1.6-.6-2.4-.6-.9 0-1.7.2-2.5.5-1.6.6-3.2 1.5-4.7 2.2-1.5.7-3 1.3-4.4 1.7-2.7.9-5.1 1.1-6.7 1.1-1.6 0-2.5-.3-2.5-.4 0-.3 3.6.1 8.8-1.8 1.3-.5 2.7-1.1 4.2-1.8s3-1.7 4.8-2.4c1.8-.7 4.2-1.1 6.3.1 1.1.6 1.9 1.7 2.2 2.9.3 1.2.2 2.5-.2 3.6-.9 2.3-2.7 3.9-4.4 5-1.7 1.2-3.5 2.2-5.3 2.8-3.6 1.3-7.1 1.7-10 1.5-2.9-.2-5.2-.8-6.7-1.4-.8-.3-1.3-.6-1.7-.8-.5-.1-.7-.3-.6-.3z" class="colorStroke000 svgStroke"/><path stroke="#000" stroke-miterlimit="10" stroke-width=".5" d="M788.9 706.4c0 .2-.8.3-2 .1-1.2-.2-2.8-.8-4.4-1.9-1.6-1-2.7-2.3-3.4-3.3-.7-1-.9-1.7-.7-1.9.4-.3 2.2 1.9 5 3.8 2.9 2 5.6 2.8 5.5 3.2zM755.9 696.7c-.2.1-.6-.3-.9-1-.3-.7-.5-1.9-.2-3.1.3-1.2.9-2.2 1.5-2.8.6-.6 1.1-.7 1.2-.6.3.4-.8 1.7-1.1 3.7-.5 1.9-.1 3.6-.5 3.8z" class="colorStroke000 svgStroke"/><path stroke="#000" stroke-miterlimit="10" d="M909.8 409.2c.2-.1 1 1.6 2.9 4.4 1.9 2.7 5.1 6.5 10.2 9.3 2.5 1.4 5.6 2.5 8.9 3.1 3.4.6 7.1.7 10.8-.1 3.7-.8 7.4-2.5 10.6-5.1 3.2-2.6 5.8-6.1 7.3-10.2s2-8.4 1.6-12.6c-.4-4.2-1.2-8.2-2.7-11.7-1.5-3.5-3.7-6.4-6.3-8.6-1.2-1.1-2.6-2-4-2.8-1.4-.8-2.8-1.5-4.1-1.9-2.7-1-5.3-1.4-7.6-1.4s-4.3.4-5.8 1c-3.1 1.1-4.6 2.3-4.8 2.1-.1-.1.2-.5.9-1.1.7-.6 1.8-1.4 3.4-2.2 1.6-.8 3.7-1.4 6.2-1.6 2.5-.2 5.4.1 8.5 1.1 1.5.5 3 1.1 4.6 1.9 1.5.8 3.1 1.7 4.5 2.9 3 2.3 5.5 5.6 7.3 9.5.9 1.9 1.6 4 2.1 6.1.3 1.1.5 2.2.6 3.2.2 1.1.3 2.2.4 3.3.5 4.5 0 9.4-1.7 14s-4.7 8.6-8.4 11.5c-3.6 2.9-7.8 4.8-12 5.6-4.2.8-8.3.6-11.9-.2-3.6-.8-6.9-2.1-9.6-3.8-5.4-3.4-8.4-7.7-10.1-10.7-1.6-3-1.9-4.9-1.8-5z" class="colorStroke000 svgStroke"/><ellipse cx="950.8" cy="391.8" stroke="#000" stroke-miterlimit="10" rx="5.5" ry="1.6" transform="rotate(89.39 950.808 391.814) scale(.99996)" class="colorStroke000 svgStroke"/><path stroke="#000" stroke-miterlimit="10" d="M948.9 409.3c.3.3-.7 1.7-2.7 3.6-1 .9-2.4 1.9-4 2.7-1.7.8-3.7 1.5-6 1.6-1.1.1-2.3 0-3.3-.3-1.1-.3-2-.7-2.9-1.1-1.7-.9-3-2.1-3.9-3.1-1.8-2.1-2.6-3.6-2.3-3.9.3-.3 1.7.6 3.8 2.1 1 .7 2.3 1.5 3.7 2.1 1.4.6 3 .9 4.7.8 3.5-.2 6.6-1.8 8.9-3 2.2-1.1 3.7-1.9 4-1.5z" class="colorStroke000 svgStroke"/><path stroke="#000" stroke-miterlimit="10" stroke-width=".25" d="M946.5 401.2c.2.1-.3 1-1.3 1.8-.9.8-1.9 1.1-2 .9-.1-.2.6-.8 1.5-1.5s1.6-1.3 1.8-1.2z" class="colorStroke000 svgStroke"/><ellipse cx="947.8" cy="403.3" stroke="#000" stroke-miterlimit="10" stroke-width=".25" rx="2.7" ry=".4" transform="rotate(-42.447 947.856 403.355)" class="colorStroke000 svgStroke"/><ellipse cx="951.2" cy="403.1" stroke="#000" stroke-miterlimit="10" stroke-width=".25" rx="2.9" ry=".4" transform="rotate(-47.359 951.107 403.106)" class="colorStroke000 svgStroke"/><path stroke="#000" stroke-miterlimit="10" stroke-width="3" d="M407.4 644.3c-.2 1.1-9.6.2-25-2.3-7.7-1.2-17-2.9-27.3-4.8-5.2-1-10.7-2.1-16.4-3.2-.7-.1-1.4-.3-2.2-.4l-1.1-.2-.4-.1c-.4-.1-.8-.1-1.2-.2-.7-.1-1.5-.2-2.2-.4.6.9 1.2 1.9 1.8 2.9 2.1 3.5 4.3 7.1 6.5 10.7 32.5 54.2 57 99.3 54.7 100.7-2.3 1.4-30.6-41.4-63.1-95.6-6.7-11.2-13.2-22.1-19.4-32.5 5.4 1.2 10.7 2.4 15.9 3.6 2.6.6 5.1 1.2 7.6 1.7 1.7.4 3.4.8 5 1.2 5.7 1.4 11.1 2.7 16.2 3.9 10.3 2.5 19.3 4.9 26.9 6.9 15 3.9 23.9 7 23.7 8.1z" class="colorStroke000 svgStroke"/><path d="M542.2 1030.8s-.1.1-.2.3c-.1.1-.3.4-.5.6-.2.2-.5.6-.8.8-.3.3-.7.6-1.1.9-.8.6-1.7 1.1-2.7 1.4-1 .3-2 .5-3.1.5s-2.1-.2-3.1-.5-1.9-.8-2.7-1.4c-.4-.3-.8-.6-1.1-.9l-.8-.8c-.2-.2-.4-.5-.5-.6-.1-.2-.2-.3-.2-.3s.1-.1.2-.3c.1-.1.3-.4.5-.6.2-.2.5-.6.8-.8.3-.3.7-.6 1.1-.9.8-.6 1.7-1.1 2.7-1.4 1-.3 2-.5 3.1-.5s2.1.2 3.1.5 1.9.8 2.7 1.4c.4.3.8.6 1.1.9l.8.8c.2.2.4.5.5.6.2.2.2.3.2.3z" fill="#000000" class="color000 svgShape"/><path fill="none" stroke="#000" stroke-miterlimit="10" stroke-width="14" d="m763.6 655.1 428.9.3c55.5 0 100.9 49.7 100.9 110.4v154.7c0 60.7-45.4 110.4-100.9 110.4H666.3M540.7 655.7l173-.3" class="colorStroke000 svgStroke"/><ellipse cx="765" cy="657.1" stroke="#000" stroke-miterlimit="10" rx="5.3" ry="1.6" transform="rotate(-5.831 765.157 657.234)" class="colorStroke000 svgStroke"/><path stroke="#000" stroke-miterlimit="10" d="M767.4 655.3c0 .9-1.2 1.6-2.7 1.8-1.4.2-2.8-.2-3-1.1-.2-.9.9-1.9 2.6-2.2 1.7-.2 3.1.6 3.1 1.5zM719.8 651.4c.2.9-1.3 2-3.5 2.1-2.2.1-3.8-.8-3.7-1.7.1-.9 1.7-1.4 3.5-1.6 1.8-.1 3.5.3 3.7 1.2z" class="colorStroke000 svgStroke"/><path stroke="#000" stroke-miterlimit="10" d="M717.8 652.6c.4.8-.6 2.1-2.3 2.6-1.7.5-3.2 0-3.4-.9-.1-.9 1-1.8 2.4-2.3 1.4-.3 2.8-.2 3.3.6z" class="colorStroke000 svgStroke"/><path fill="none" stroke="#000" stroke-miterlimit="10" stroke-width="14" d="M685.2 655.1H783M1110.2 192.7l111 3.3c48.8-7.4 97.5-14.8 146.3-22.2-26.1 35-52.2 70.1-78.3 105.1l7.5 155.1c0 56.8-46.5 103.3-103.3 103.3h-725c-56.8 0-103.3-46.5-103.3-103.3V297.6c0-56.8 46.5-103.3 103.3-103.3 110.2 0 310.9-1.5 335.2 0" class="colorStroke000 svgStroke"/><ellipse cx="893.7" cy="195.7" stroke="#000" stroke-miterlimit="10" rx="14.1" ry="1.6" transform="rotate(-1.146 893.64 195.728)" class="colorStroke000 svgStroke"/><path stroke="#000" stroke-miterlimit="10" d="M873.9 324.6c-.1.1-.5-.4-1-1.3-.3-.4-.6-1-1-1.6-.4-.6-.9-1.4-1.3-2.3-1.9-3.5-4.4-8.8-6.6-15.6-.6-1.7-1-3.5-1.6-5.4-.5-1.9-1-3.9-1.4-5.9-.8-4.1-1.6-8.6-2-13.3-.9-9.4-.8-19.9.6-30.8 1.5-10.8 4.1-21 7.1-29.9 3-8.9 6.4-16.8 9.6-23.1 3.2-6.4 6-11.4 8.1-14.8 2.1-3.4 3.4-5.2 3.6-5.1.5.3-3.8 7.9-9.6 20.8-2.9 6.4-6 14.2-8.8 23.1-2.8 8.9-5.3 18.8-6.7 29.4-1.4 10.6-1.6 20.8-.9 30.1.3 4.6 1 9 1.7 13 .4 2 .8 4 1.2 5.8.5 1.9.8 3.7 1.4 5.3 1.9 6.8 4 12.1 5.5 15.7.4.9.7 1.7 1 2.4.3.7.6 1.3.8 1.8.3 1.1.4 1.6.3 1.7zM920.5 227.4c-.3.3-2.1-1.3-4.2-4.4-1.1-1.5-2.2-3.5-3.3-5.7-1.1-2.2-2.1-4.8-3-7.5-.8-2.8-1.4-5.4-1.7-7.9-.3-2.5-.4-4.7-.4-6.6.1-3.8.7-6 1.1-6 1 0 .9 9.1 4.1 19.6 3.1 10.4 8.2 17.9 7.4 18.5z" class="colorStroke000 svgStroke"/><path stroke="#000" stroke-miterlimit="10" d="M908.3 190c-.2 0-.5-.2-.8-.2h-.5c-.2 0-.3.1-.5.2s-.5.3-.8.6c-.4.3-.8.6-1.3.9-.9.6-1.9 1.2-3 1.8-1.4.8-2.7 1.4-3.9 1.9l-1.3-2.5c2.5-.9 4.2-1.8 4.6-1.3.4.4-.7 2.3-3.4 3.9l-1.3-2.5c1.1-.7 2.3-1.5 3.7-2.3 1.1-.6 2.2-1.2 3.1-1.6.5-.2 1-.4 1.4-.6.5-.2 1-.4 1.6-.4.6-.1 1.2 0 1.6.3.4.2.7.6.9.9.4.5.1.9-.1.9z" class="colorStroke000 svgStroke"/><path stroke="#000" stroke-miterlimit="10" d="M907.9 190.6c.4.8-.9 2.2-2.7 3.2-1.8 1-3.6 1.4-4.1.6-.5-.7.5-2.4 2.5-3.5s4-1.1 4.3-.3z" class="colorStroke000 svgStroke"/><path stroke="#000" stroke-miterlimit="10" d="M908.5 192.2c.3.3.4.8.2 1.3s-.8 1.1-1.5 1.3-1.5.2-2-.1c-.5-.3-.7-.7-.7-1.2s.3-.8.6-1.1c.3-.3.7-.5 1.1-.7.4-.1.8-.2 1.3-.1.2.1.7.3 1 .6zM906.6 188.9c.2.9-2.7 2.3-6.4 3.7-3.7 1.4-6.8 2.2-7.2 1.4-.4-.8 2.2-3 6.1-4.5 3.9-1.4 7.3-1.5 7.5-.6z" class="colorStroke000 svgStroke"/><path d="M908.5 109.5c4.4-26.1 26.5-41.7 35.2-47.9 7.4-5.2 18.6-13.2 35.2-15.5 20.3-2.8 36.5 4.4 48.6 9.9 8.3 3.7 20 9 31.1 20.1 14.7 14.8 16 27.5 37 76.4 13.7 31.8 17 27.1 29.1 56.7 14.6 35.6 22.5 55.1 18.1 79.5-5.3 29.6-27.8 61.1-61.4 70.9-10.1 3-31.4 9.2-47.2-1.6-21.9-14.9-2.9-54-23.6-119.7-2.3-7.4-4.6-13.4-6.1-17.1 21.7-14.6 26.2-26.6 26.4-34.8.2-8.6-4.3-13.5-6.6-28.2-1.8-11.7-.9-21.5 0-27.6-9.5 2-20.2 3.7-31.8 4.8-15.6 1.4-29.8 1.4-42.1.6 1.7-11.5-3.6-21.4-11.4-24-8-2.7-15.6 3.2-16.8 4.2-11.1 9-5.4 29.2-7.2 29.4-1.7.1-9.8-16.6-6.5-36.1zM442.3 689.6c-2 2.9-6.5 8.7-14.4 12.7-9.9 4.9-19 3.9-22 3.6-2.8-.3-15.7-2.2-25.3-13.4-5.8-6.7-7.7-13.7-8.6-17.5-1-3.8-4.7-18.5 2.4-30.9 5.8-10.2 12.1-7.2 23.2-19 11.9-12.6 7.4-19 17.5-27.2 3.3-2.7 6.2-4 35.8-10 27.5-5.6 26.8-4.9 32.3-6.8 19-6.7 22-13.9 32.1-12.5 9.7 1.3 18.5 9.5 21.4 19 4.7 15.2-5.5 33.3-13.4 33.2-1.7 0-6.9-.9-12.8-15.8-2.5 5.5-6.6 13.4-12.5 22.5-11.1 16.9-16.8 25.6-27.3 29.7-12.9 5.1-21.4-1.1-27.9 5.4-5.3 5.3-4.7 14.5-3.3 21.7" fill="#000000" class="color000 svgShape"/><path stroke="#000" stroke-miterlimit="10" d="M426.5 706.4c-.5-.8 3.2-3.6 6.4-7.9 3.3-4.3 5-8.5 6-8.3.4.1.5 1.4.1 3.3-.5 1.9-1.6 4.5-3.4 6.9-1.9 2.4-4.1 4.2-5.8 5.1-1.8 1-3.1 1.2-3.3.9zM459.7 655.2c.9 0 1.6 3.3 1.7 7.5v5.8l-2.9-4.3c-1.2-1.8-1.8-3.6-1.8-5-.1-1.4.2-2.2.6-2.2.9-.1 1.8 2.6 3.9 5.3l-3 .9v-.6c-.1-4 .6-7.3 1.5-7.4zM947.8 116.8c-.5.2-1.2-2-3.9-3.8-1.3-.9-3.1-1.7-5.1-2.1-2-.4-4.4-.2-6.7.6-2.4.7-4.5 1.9-6.4 3.1-1.9 1.2-3.5 2.5-4.7 3.7-2.5 2.3-3.5 4.2-4 4-.2-.1-.2-.7.1-1.7.3-1 1-2.4 2.2-3.9 1.2-1.5 2.7-3.1 4.6-4.6 1.9-1.5 4.3-2.9 7.2-3.8 2.8-.9 5.8-1 8.3-.4 2.5.6 4.6 1.9 6 3.3 1.4 1.4 2.1 2.8 2.4 3.9.2.5.2.9.2 1.2 0 .3-.1.4-.2.5z" class="colorStroke000 svgStroke"/><path stroke="#000" stroke-miterlimit="10" d="M946.9 119.3c-.7.6-3.3-1.6-6.2-4.2-2.9-2.7-5.3-5-4.8-5.8.5-.8 3.8.4 7 3.3 3.2 3 4.8 6.2 4 6.7zM1023.5 169.1c-.4.1-1.3-2.4-2-6.5s-1.3-9.9-1-16.3c.1-3.2.4-6.2.9-9s1.3-5.2 2.2-7.2c.9-2 2-3.4 2.8-4.3.8-.9 1.4-1.2 1.6-1.1.4.3-1.1 2.4-2.3 6.2-.6 1.9-1.1 4.2-1.4 6.8-.3 2.6-.5 5.6-.6 8.7-.5 12.4.8 22.5-.2 22.7zM1028 358c-.3.2-3.5-5.8-6.1-16.3-1.3-5.2-2.3-11.6-3-18.7-.6-7.1-.8-14.9-.6-23.1.2-8.2.7-15.9 1.2-22.9.5-7 .9-13.3 1.1-18.7.5-10.6.5-17.2.9-17.2s1.3 6.6 1.4 17.3c0 5.4-.1 11.7-.4 18.8-.3 7-.7 14.8-.9 22.9-.2 8.1-.1 15.8.3 22.8s1.2 13.2 2.2 18.4c2 10.3 4.4 16.5 3.9 16.7z" class="colorStroke000 svgStroke"/><path d="M603.9 1071.5v30.6c3.9 1.3 9.2 3.1 15.7 4.8 6.4 1.7 20.7 5.2 40.8 6.8 14.6 1.2 31.2 2.5 32-.7.5-2-5.1-6.4-33.3-17-3.5-.3-8.5-.8-14.3-2-8.1-1.7-12.1-2.6-15-5.4-4.8-4.9-4.5-12.4-4.1-15.7-7.3-.5-14.5-1-21.8-1.4z" fill="#000000" class="color000 svgShape"/><path d="M551.5 1064.7c-.6 4.9-1.9 12-4.8 20.4-2.4 7-4 9.4-2.7 11.6 2.4 4.1 11.2.5 29.9 0 2 0 .5 0 24.5.7 18.5.5 21.4.5 21.8-.7.7-2.5-10.4-9.8-23.1-12.2-11.6-2.2-17.2.9-23.1-3.4-5.5-4-7-11.2-7.5-16.3" fill="#000000" class="color000 svgShape"/><path stroke="#000" stroke-miterlimit="10" d="M516.3 880c-1 .1-1.8-22.9-8.6-50.1-6.7-27.3-16.8-47.9-15.9-48.3.4-.2 3.4 4.7 7.2 13.2 1 2.1 2 4.5 3 7 1.1 2.5 2 5.3 3.1 8.2 2 5.8 4 12.3 5.7 19.2 1.7 6.9 3 13.6 3.9 19.6.4 3 .8 5.9 1.1 8.7.3 2.7.5 5.3.6 7.6.6 9.2.3 14.9-.1 14.9zM489.2 772.9c-.5-.2-.1-2.1.1-5.1.2-3 .1-7.1-1.2-11.4-1.2-4.3-3.2-7.9-5-10.3-.4-.6-.8-1.2-1.2-1.6-.2-.2-.3-.5-.5-.7-.1-.2-.2-.3-.3-.4-.1-.1-.3-.1-.3 0s.1.2.2.2.2 0 .3-.1c0-.1.1-.2.1-.2 0-.1.1-.1.1-.1h-.1v-.1c0-.1 0-.1-.1-.1-.1-.1-.3-.3-.2-.5.1-.2.4-.3.7-.2.3 0 .6.2.9.4.2.2.5.3.7.5.5.4 1.1.8 1.7 1.4 2.4 2.2 5.1 6.1 6.4 11 1.4 4.8 1.1 9.5.3 12.7-1 3.1-2.2 4.8-2.6 4.6z" class="colorStroke000 svgStroke"/><ellipse cx="470.4" cy="867" stroke="#000" stroke-miterlimit="10" rx="11.7" ry="1.6" transform="rotate(-62.748 470.419 866.97)" class="colorStroke000 svgStroke"/><path stroke="#000" stroke-miterlimit="10" d="M1032.1 193.9c.2.1-.8 2-2.8 5.3-2.1 3.2-5.5 7.8-10.4 12.8-4.9 5-11.4 10.3-19.3 15-1 .6-2 1.1-3.1 1.7-1.1.5-2.1 1.2-3.2 1.7-2.2 1-4.4 2.1-6.8 3-2.3 1-4.8 1.7-7.2 2.6-1.2.4-2.5.7-3.8 1.1-.6.2-1.3.4-1.9.5-.7.1-1.3.3-2 .4-10.4 2.3-20.9 2.7-30.1.8-4.6-1-8.8-2.5-12.5-4.6-3.7-2.1-6.7-4.6-9.1-7.2-2.4-2.6-4.2-5.4-5.4-7.9-1.2-2.5-1.9-4.9-2.3-6.8-.7-3.9-.2-6.1-.1-6.1.3 0 .3 2.2 1.3 5.8.5 1.8 1.3 4 2.6 6.3s3.1 4.8 5.4 7.1c2.3 2.4 5.3 4.6 8.7 6.4 3.5 1.8 7.5 3.2 11.8 4 8.7 1.7 18.7 1.2 28.8-1 .6-.1 1.3-.3 1.9-.4.6-.1 1.2-.3 1.9-.5 1.2-.3 2.5-.6 3.7-1 2.4-.8 4.8-1.5 7-2.5 2.3-.8 4.5-1.9 6.6-2.8 1.1-.5 2.1-1.1 3.1-1.6s2-1 3-1.6c7.8-4.4 14.2-9.4 19.2-14.1 10.1-9.3 14.5-16.8 15-16.4z" class="colorStroke000 svgStroke"/><path stroke="#000" stroke-miterlimit="10" d="M1018.6 183.6c-.1.2-1.1-.4-2.8-1.5-1.7-1.1-4.1-2.8-7.3-4.2-1.6-.7-3.4-1.2-5.3-1.4-1.9-.2-4 0-6.2.6-4.3 1.3-8.5 4.2-12.1 8.1-3.7 3.9-6.6 8.2-8.7 12.3-.5 1-1 2.1-1.5 3.1l-.6 1.5c-.2.5-.3.8-.7 1.8-.3.8-.6 1.6-.8 2.4l-.1.3v.1c0 .1 0 .1-.1.1l-.5-.3c-.4-.2-.7-.4-1.1-.6-.7-.4-1.3-.7-2-1.1-.4-.2-.8-.5-1.2-.7-6.3-3.6-10.1-6-9.9-6.4.2-.4 4.4 1.3 11 4.4.4.2.8.4 1.3.6l.2.1.1.1.3.1.3.1.1.1v-.1c0-.2.1-.4.2-.6 0 0 .2-.8.4-1.3s.4-1.1.6-1.6c.4-1.1.9-2.2 1.4-3.3 2.1-4.5 5.1-9 9.1-13.2 3.9-4.2 8.7-7.4 13.7-8.7 2.5-.6 5-.8 7.3-.4s4.3 1.2 6 2.1c3.4 1.8 5.6 3.9 7.1 5.3 1.2 1.1 1.9 2 1.8 2.2zM984.5 163.3c-.4.2-1.3-1-2.7-2.8-.7-.9-1.6-1.9-2.6-3-1-1-2.2-2.1-3.5-3.2-1.3-1-2.7-1.9-3.9-2.6-1.3-.7-2.5-1.3-3.5-1.8-2.1-.9-3.4-1.5-3.4-1.9 0-.4 1.6-.7 4.1-.3 1.2.2 2.6.7 4.2 1.3 1.5.7 3.1 1.6 4.6 2.8 1.5 1.2 2.8 2.5 3.8 3.8 1 1.3 1.8 2.6 2.3 3.7.9 2.3 1 3.9.6 4zM969.4 169c0 .4-.8.8-2 .8s-3-.6-4.4-1.9c-1.5-1.3-2.3-2.9-2.5-4.1-.2-1.2 0-2 .5-2.1.5-.1 1 .4 1.6 1.2.7.7 1.5 1.7 2.6 2.6 1.1.9 2.1 1.6 2.9 2.1.7.5 1.3 1 1.3 1.4z" class="colorStroke000 svgStroke"/><path stroke="#000" stroke-miterlimit="10" d="M964.9 167.9c.4.3.3 1-.1 2s-1.3 2.3-2.6 3.3c-1.3 1.1-2.6 1.8-3.7 2.1-1.1.3-1.8.2-2-.2-.4-.8 1.4-2.5 3.6-4.4 2.1-1.8 4-3.3 4.8-2.8zM1006.9 199.3c-.2.4-1.2.5-2.6 0-1.4-.4-3.3-1.4-5-2.9-1.7-1.5-2.9-3.3-3.4-4.6-.6-1.4-.6-2.4-.3-2.6.8-.4 2.9 2.2 5.9 4.8 2.9 2.6 5.7 4.5 5.4 5.3zM1000.1 197.5c.7.5.1 2.7-1.9 4.5-2 1.8-4.2 2.2-4.6 1.4-.4-.8.8-2.3 2.5-3.8 1.6-1.5 3.3-2.6 4-2.1zM952.6 214.6c.1.4-1.2 1.1-3.4 1-2.2-.1-5.4-1.1-7.7-3.8-2.3-2.7-2.9-6-2.7-8.2.2-2.2 1.1-3.4 1.5-3.2.5.1.5 1.4.8 3.2.3 1.8 1.1 4.2 2.8 6.1 1.7 2 3.9 3.1 5.7 3.7 1.7.5 2.9.7 3 1.2zM949.4 136.6c-.2 0-.3-1.1-.4-3.1-.2-1.9-.4-4.7-1.5-7.9-.6-1.6-1.3-3.2-2.4-4.8-1.1-1.5-2.6-3-4.4-4.1-1.8-1.1-3.9-1.9-6.1-1.9-2.2-.1-4.5.6-6.6 1.8-2.1 1.2-3.9 2.9-5.4 4.7-1.5 1.8-2.7 3.8-3.6 5.8-1.8 4-2.6 8.1-2.6 11.4 0 3.4.8 6 1.5 7.8.8 1.7 1.4 2.7 1.2 2.8-.1.1-1.1-.5-2.3-2.2-1.1-1.7-2.4-4.5-2.7-8.3-.3-3.7.2-8.2 2.1-12.7.9-2.3 2.2-4.5 3.9-6.7 1.7-2.1 3.8-4.1 6.3-5.6 1.3-.7 2.6-1.3 4.1-1.7 1.4-.3 2.9-.6 4.3-.5 2.9.1 5.5 1.2 7.6 2.6 2.1 1.4 3.7 3.3 5 5.1 1.2 1.9 1.9 3.8 2.4 5.6.9 3.6.8 6.6.6 8.6-.4 2.2-.8 3.3-1 3.3zM867 351.2c-.1.1-.7-.2-1.9-.9-.6-.3-1.3-.8-2.2-1.3-.4-.3-.9-.5-1.4-.9-.5-.3-1-.7-1.5-1-1.1-.8-2.3-1.6-3.6-2.5-1.3-1-2.6-2-4.1-3.2-1.5-1.1-3-2.5-4.6-3.8-1.6-1.4-3.2-2.9-4.9-4.5-1.7-1.6-3.4-3.4-5.2-5.2-.9-.9-1.7-1.9-2.6-2.9-.9-1-1.8-2-2.7-3.1-1.7-2.2-3.6-4.3-5.3-6.7-.9-1.2-1.8-2.4-2.6-3.6-.8-1.3-1.7-2.5-2.6-3.8-.9-1.3-1.7-2.6-2.5-4s-1.7-2.7-2.5-4.2c-.8-1.4-1.6-2.9-2.4-4.3-.7-1.5-1.5-3-2.2-4.5-2.9-6.1-5.5-12.7-7.7-19.5-2.1-6.9-3.6-13.8-4.7-20.5-.2-1.7-.5-3.3-.7-5-.2-1.7-.3-3.3-.5-4.9-.2-1.6-.2-3.2-.3-4.8-.1-1.6-.2-3.2-.2-4.7v-4.6c0-1.5.1-3 .1-4.5 0-3 .4-5.8.6-8.6.1-1.4.3-2.7.5-4 .2-1.3.3-2.6.5-3.9.5-2.5.8-5 1.3-7.3s.9-4.5 1.5-6.5 1-4 1.6-5.8c.6-1.8 1.1-3.4 1.6-4.9.6-1.5 1.1-2.9 1.5-4.1.2-.6.5-1.2.7-1.7.2-.5.5-1 .7-1.5.4-.9.8-1.7 1.1-2.3.6-1.2 1-1.9 1.1-1.8s-.1.8-.5 2.1c-.2.7-.5 1.5-.8 2.4-.2.5-.3 1-.5 1.5-.2.6-.3 1.1-.5 1.8-.4 1.2-.8 2.6-1.3 4.1-.4 1.5-.9 3.2-1.3 5-.5 1.8-.9 3.7-1.4 5.7-.5 2-.9 4.2-1.3 6.5-.5 2.3-.7 4.7-1.1 7.2-.2 1.2-.3 2.5-.4 3.8-.1 1.3-.3 2.6-.4 4-.1 2.7-.4 5.5-.4 8.4 0 1.4-.1 2.9-.1 4.4 0 1.5.1 3 .1 4.5s.1 3.1.2 4.6c.1 1.6.2 3.1.4 4.7s.3 3.2.5 4.8c.2 1.6.5 3.2.7 4.9 1.1 6.6 2.6 13.3 4.6 20 2.1 6.7 4.6 13.1 7.4 19.1.7 1.5 1.4 3 2.2 4.4.8 1.4 1.5 2.9 2.3 4.3.7 1.4 1.6 2.8 2.4 4.1.8 1.3 1.6 2.7 2.4 4 .8 1.3 1.7 2.5 2.5 3.8.8 1.2 1.7 2.4 2.5 3.6 1.6 2.4 3.4 4.6 5.1 6.7.8 1.1 1.7 2.1 2.6 3.1.9 1 1.6 2 2.5 2.9 1.7 1.8 3.3 3.7 5 5.3 1.6 1.6 3.2 3.2 4.7 4.6 1.5 1.4 2.9 2.8 4.4 4 1.4 1.2 2.7 2.3 3.9 3.3 1.2 1 2.4 1.9 3.4 2.7.5.4 1 .8 1.4 1.2.5.3.9.7 1.3 1 .8.6 1.5 1.1 2 1.6 1.1.7 1.7 1.2 1.6 1.2zM884.2 335c-.1.1-.5-.2-1.3-.7-.4-.3-.8-.6-1.4-1.1-.3-.2-.6-.5-.9-.7l-.9-.9c-.6-.6-1.3-1.4-2.1-2.1-.7-.8-1.4-1.8-2.2-2.8-.8-1-1.5-2.2-2.4-3.3-.8-1.2-1.5-2.6-2.3-3.9-3.1-5.7-5.7-12.9-7.4-21.2-.9-4.2-1.5-8.6-1.9-13.1-.4-4.6-.6-9.3-.7-14.2-.1-4.9 0-9.6.3-14.2.2-4.6.7-9 1.2-13.2.5-4.2 1.3-8.1 2.1-11.8.8-3.7 1.7-7 2.7-10.1 1.9-6.1 4-10.8 5.6-14 1.6-3.2 2.7-4.8 2.9-4.7.5.2-3.1 7.2-6.3 19.3-.8 3-1.6 6.4-2.3 10-.6 3.6-1.3 7.5-1.7 11.6-.5 4.1-.8 8.4-1 13-.2 4.5-.3 9.2-.2 14 .1 4.8.2 9.4.6 13.9.4 4.5 1 8.8 1.7 12.8 1.6 8.1 3.8 15.2 6.6 20.8.7 1.4 1.3 2.7 2.1 3.9.7 1.2 1.4 2.4 2.1 3.4.7 1 1.4 2 2 2.8.7.8 1.3 1.6 1.8 2.3.3.3.5.7.8 1 .3.3.5.6.7.8.5.5.8.9 1.1 1.3.5.6.8 1 .7 1.1zM883.3 334.7c.5.8-3 3.8-6.7 7.8s-6.4 7.7-7.3 7.3c-.4-.2-.2-1.4.6-3.2.8-1.8 2.3-4.1 4.3-6.2 2-2.2 4.2-3.8 5.9-4.7 1.7-1 2.9-1.3 3.2-1zM912.2 407.8c0 .1-.2.3-.7.4l-.9.3c-.4.1-.8.1-1.3.2-2 .2-5.1-.2-8.4-1.7-3.3-1.5-6.8-4.1-10.1-7.5-3.3-3.4-6.4-7.4-9.5-11.8-6.1-8.9-10.5-17.5-13.5-23.8-3-6.3-4.5-10.4-4.1-10.6.4-.2 2.7 3.5 6.2 9.5s8.2 14.4 14.1 23.1c3 4.3 6.1 8.3 9 11.7 3 3.3 6.1 5.9 9 7.5 2.9 1.6 5.5 2.3 7.4 2.5.5 0 .9.1 1.2.1h.9c.4 0 .7 0 .7.1zM934.4 400.4c.1.2-.4.7-1.6 1.2-1.1.6-3 1.1-5.3 1.1-2.3.1-5-.3-7.9-1.3-2.8-.9-5.8-2.3-8.7-4.1-11.5-6.9-19.1-14.8-18.5-15.4.6-.7 9 5.9 20.1 12.6 5.5 3.3 10.9 5.5 14.9 5.8 4.2.6 6.8-.4 7 .1z" class="colorStroke000 svgStroke"/><path stroke="#000" stroke-miterlimit="10" d="M937.8 401.1c0 .2-.6.5-1.8.5-1.2.1-3-.1-5-.8-2-.7-4.3-1.8-6.7-3.2-2.3-1.5-4.8-3.1-7.3-4.9-10.2-7.1-18.1-13.5-17.5-14.2s9.2 4.4 19.4 11.5c2.6 1.8 5 3.5 7.1 5.1 2.2 1.5 4.1 2.8 5.9 3.6 3.3 1.8 5.9 1.9 5.9 2.4z" class="colorStroke000 svgStroke"/><ellipse cx="926.6" cy="389" stroke="#000" stroke-miterlimit="10" rx="17.3" ry="1.6" transform="rotate(39.547 926.623 388.957)" class="colorStroke000 svgStroke"/><path stroke="#000" stroke-miterlimit="10" d="M941.7 387.2c-.4.3-2-1.8-5.4-4.4-1.7-1.3-3.8-2.6-6.2-4.1-2.4-1.5-5.1-3.2-7.8-5.3-5.4-4.3-9.1-9.4-11.1-13.3-2-4-2.6-6.7-2.2-6.9.4-.2 1.7 2.2 4.1 5.7 2.4 3.5 6.1 8 11.1 12 2.5 2 5.1 3.7 7.5 5.3 2.4 1.7 4.5 3.3 6 4.9 3.4 3.2 4.4 6 4 6.1zM942 388.8c0 .2-.4.6-1.3.8-.9.3-2.3.4-3.9.1-1.6-.3-3.5-.9-5.4-1.8-1.9-.9-3.8-2-5.9-3.1-8.2-4.7-14.1-9.5-13.6-10.3.5-.8 7.2 2.8 15.2 7.5 2 1.2 3.9 2.3 5.6 3.3 1.7 1 3.2 1.8 4.6 2.3 2.7 1 4.6.8 4.7 1.2zM926.9 342.5c-.1.5-2.5.2-6.4.4-2 .1-4.3.1-6.9.2-2.6.1-5.5.1-8.7-.2-1.6-.2-3.1-.4-4.5-.8-1.5-.4-2.9-.9-4.1-1.4-2.5-1-4.5-2-6.3-2.5-1.8-.5-3.2-.7-4.2-.6-.5 0-.9.1-1.2.1-.3 0-.5 0-.5-.1s0-.3.3-.5c.2-.2.6-.5 1.2-.7 1.1-.5 2.9-.8 5-.4 2.1.3 4.4 1.1 6.8 2 2.4.9 5 1.4 7.9 1.7 2.9.3 5.7.3 8.3.4 2.6.1 5 .2 7 .5 4 .4 6.4 1.5 6.3 1.9zM927.2 345.6c.2 0 .4.3.4.8s-.1 1.2-.6 2c-.9 1.6-3.1 2.9-5.6 3.4-2.4.4-4.4.2-5.7.2-1.4-.1-2.3-.1-2.5-.5-.2-.4.5-1.2 2.1-1.8 1.5-.6 3.6-.8 5.6-1.1 1.9-.3 3.5-1 4.4-1.7.9-.6 1.4-1.4 1.9-1.3zM910.6 406.8c-.3.4-1.4.1-3.1-.9-1.6-1-3.7-2.7-5.6-4.9-1.9-2.3-3.1-4.6-3.8-6.4-.7-1.8-.7-3-.3-3.2.9-.4 3.2 3.4 6.6 7.6 3.5 4 6.8 7 6.2 7.8zM902.5 73.8c0 .2-3.2.9-9 2.2-5.8 1.2-14.2 3.1-24.4 5.8-5.1 1.3-10.7 3-16.6 4.8-5.9 1.9-12.2 4-18.7 6.5-13 4.9-27 11.3-41 19.3-7 4-13.6 8.3-19.8 12.6-6.2 4.3-11.9 8.9-17.3 13.4-1.3 1.1-2.6 2.3-3.9 3.4-1.3 1.1-2.5 2.3-3.7 3.4-2.5 2.2-4.7 4.5-6.9 6.7-2.1 2.2-4.2 4.4-6.1 6.5-1.9 2.2-3.8 4.2-5.4 6.2-1.7 2-3.3 3.9-4.7 5.9-1.4 1.9-2.9 3.6-4 5.4-1.2 1.7-2.4 3.3-3.4 4.8s-1.9 2.9-2.7 4.1c-.4.6-.8 1.2-1.2 1.7-.4.6-.7 1.1-1 1.6-.6 1-1.1 1.8-1.6 2.4-.9 1.3-1.4 2-1.5 1.9-.1-.1.2-.8.9-2.2.4-.7.8-1.6 1.3-2.6.3-.5.6-1.1.9-1.6.3-.6.7-1.2 1.1-1.8.8-1.3 1.6-2.7 2.5-4.3 1-1.5 2.1-3.2 3.2-4.9 1.1-1.8 2.5-3.6 3.9-5.6 1.4-2 3-3.9 4.6-6.1 1.6-2.1 3.5-4.2 5.3-6.5 1.9-2.2 4-4.4 6.1-6.7 2.2-2.2 4.4-4.6 6.9-6.9 1.2-1.1 2.4-2.3 3.7-3.5 1.3-1.1 2.6-2.3 3.9-3.5 5.3-4.6 11.1-9.3 17.4-13.7 6.3-4.4 12.9-8.8 20-12.8 14.1-8.1 28.3-14.4 41.6-19.3 6.6-2.5 13-4.5 19-6.3 6-1.7 11.6-3.2 16.8-4.5 10.4-2.4 18.8-4 24.7-4.8 5.8-.9 9.1-1.2 9.1-1zM895.2 161.9c-.4.1-2.2-4.7-3.7-12.9-1.6-8.1-2.8-19.7-2-32.4.2-3.2.5-6.3.8-9.2.4-3 .9-5.9 1.7-8.6.8-2.7 1.8-5.2 3.1-7.5 1.3-2.2 2.8-4.1 4.5-5.5 3.2-2.9 6.7-4.2 9.1-4.5 2.4-.3 3.7.1 3.7.3 0 .3-1.3.3-3.4.9-2.1.6-5 2.1-7.8 4.9-2.8 2.8-5 7-6.2 12.1-1.3 5.1-1.8 11-2.1 17.2-.7 12.4.1 23.7 1 31.8.8 8.3 1.8 13.3 1.3 13.4z" class="colorStroke000 svgStroke"/><path stroke="#000" stroke-miterlimit="10" d="M916.8 88c.4.3-1.7 3.8-4.3 9.8-.3.8-.6 1.5-1 2.4-.3.8-.6 1.7-.9 2.6-.7 1.8-1.2 3.8-1.9 5.8-1.1 4.2-2.1 8.8-2.8 13.8-1.3 9.9-1.3 19-1.2 25.6.1 6.6.3 10.7-.2 10.8-.4.1-1.4-4-2.1-10.6-.7-6.6-1.1-16 .3-26.2.7-5.1 1.8-9.9 3.1-14.2.7-2.1 1.4-4.1 2.2-5.9.4-.9.8-1.8 1.1-2.6l1.2-2.4c.7-1.5 1.6-2.8 2.3-3.9.4-.6.7-1.1 1-1.6.4-.5.7-.9 1-1.2 1.3-1.5 2-2.3 2.2-2.2zM531.5 666.1c-.1-.2.7-.9 2.3-2.2.8-.6 1.7-1.4 2.8-2.3.5-.5 1.1-.9 1.7-1.5.6-.5 1.3-1.1 1.8-1.6.5-.6.9-1.2.9-1.6 0-.4-.3-1-1-1.7-1.3-1.4-3.1-2.6-5-3.9-2-1.3-4.2-2.6-6.3-4.5-2.1-1.9-3.7-4.4-4.9-7-1.2-2.6-2-5.3-2.7-7.8-.6-2.5-1.2-4.9-1.8-7.2-.6-2.3-1.2-4.3-2-6.2-.8-1.9-1.6-3.6-2.5-5.1-1.7-3-3.4-5.3-4.7-6.9-1.2-1.6-1.9-2.4-1.8-2.6.1-.2 1.1.4 2.7 1.7 1.5 1.3 3.6 3.5 5.7 6.5 1 1.5 2.1 3.3 3 5.3.9 2 1.7 4.2 2.4 6.5s1.3 4.7 2 7.2c.7 2.4 1.4 4.9 2.5 7.3 1.1 2.3 2.4 4.4 4.2 6 1.7 1.6 3.8 2.9 5.7 4.3 2 1.4 3.9 2.8 5.4 4.6.4.4.8.9 1.1 1.5.3.6.5 1.4.4 2.1-.1.8-.4 1.4-.7 1.9-.3.5-.7.9-1.1 1.2-.8.7-1.5 1.1-2.1 1.6-.7.5-1.3.9-1.9 1.3-1.2.8-2.3 1.4-3.2 1.9-1.7 1-2.8 1.4-2.9 1.2z" class="colorStroke000 svgStroke"/><path stroke="#000" stroke-miterlimit="10" d="M532.5 665.3c.2-.1.9 1.7 1.8 4.9s2 8 2.7 13.9c.4 3 .7 6.3.8 9.8.1 3.5.1 7.5-1.1 11.5-.6 2-1.5 4-2.7 5.9-1.2 1.8-2.8 3.5-4.5 5-3.4 3-7.6 5.1-11.9 6.8-4.4 1.6-8.7 2.7-12.8 3.9-4.1 1.2-7.9 2.4-11.3 4.1-3.4 1.7-6.3 3.8-8.7 6.2-2.4 2.3-4.4 4.9-5.9 7.3-3 4.9-4.4 9.5-5.1 12.7-.7 3.2-.8 5.1-1.1 5-.2 0-.5-1.9-.2-5.2.3-3.4 1.4-8.3 4.4-13.7 1.5-2.7 3.5-5.4 6-8 2.5-2.6 5.7-5 9.3-6.9 3.6-1.9 7.6-3.3 11.8-4.5 4.1-1.2 8.4-2.3 12.5-3.9s7.9-3.6 11-6.2c3.1-2.6 5.3-5.8 6.4-9.3 1.1-3.5 1.3-7.2 1.2-10.6 0-3.5-.2-6.7-.4-9.6-.9-11.8-2.7-18.9-2.2-19.1z" class="colorStroke000 svgStroke"/><path stroke="#000" stroke-miterlimit="10" d="M535.8 676.9c.4.2.1 1.4-1 3s-3 3.5-5.6 4.9c-2.6 1.4-5.2 2-7.1 2-1.9 0-3.1-.4-3.1-.8 0-.9 4.2-1.6 8.7-4.1 4.5-2.3 7.3-5.5 8.1-5zM501.5 643.6c-.4.1-1.1-1.1-1.3-3.3-.2-2.2.3-5.3 2-8.3.9-1.5 1.9-2.7 3-3.7.5-.5 1.1-.9 1.7-1.3.3-.2.6-.3.8-.5.3-.2.6-.3.9-.4 1.1-.4 2.4-.4 3 .1.6.5.6 1 .5 1.1-.1.2-.4 0-.9.1-.4.1-.9.3-1.6.8-.2.1-.3.2-.5.4s-.4.4-.6.5c-.4.4-.8.8-1.2 1.3-.8.9-1.6 2-2.3 3.2-1.4 2.4-2.1 4.9-2.5 6.8-.4 1.9-.5 3.1-1 3.2zM515.4 651.1c-.9-.3-.8-3-1.4-6.2-.5-3.1-1.6-5.7-.9-6.2.4-.3 1.1.1 2 1.1.9 1 1.7 2.6 2.1 4.6.4 2 .1 3.8-.3 5-.5 1.2-1.1 1.8-1.5 1.7z" class="colorStroke000 svgStroke"/><ellipse cx="505.7" cy="664.3" stroke="#000" stroke-miterlimit="10" rx="1.1" ry="1.6" transform="rotate(18.495 505.791 664.334)" class="colorStroke000 svgStroke"/><path stroke="#000" stroke-miterlimit="10" d="M518.2 664.7c.2.4.2.9 0 1.2-.2.4-.7.6-1.3.5-.6-.1-1-.6-1.1-1-.1-.5.1-.9.4-1.3.2-.3.5-.4.7-.6.2-.2.3-.3.4-.3.1 0 .1.2.3.5.2.3.4.6.6 1z" class="colorStroke000 svgStroke"/><ellipse cx="509.9" cy="677.5" stroke="#000" stroke-miterlimit="10" rx="1.4" ry="1.6" transform="rotate(-45.551 509.83 677.408)" class="colorStroke000 svgStroke"/><path stroke="#000" stroke-miterlimit="10" d="M462 686.8c.2.1.1 1.1-.8 2.5s-2.9 3.3-6 4.1c-1.5.4-3.3.5-5.2.1-1.9-.4-3.7-1.3-5.4-2.5-1.7-1.3-3.1-3-4.2-5s-1.8-4.3-2.1-6.6c-.3-2.4-.2-4.7.2-6.8.4-2.2.9-4.2 1.7-6.1 1.6-3.8 4.4-6.8 7.5-7.8 3.1-1.1 5.8-.5 7.3.4s1.9 1.9 1.8 2c-.2.2-.9-.4-2.3-.8s-3.6-.5-5.9.5c-2.3 1-4.4 3.5-5.6 6.8-1.2 3.3-1.9 7.4-1.4 11.4.2 2 .8 3.9 1.7 5.5.9 1.6 2 3.1 3.3 4.1 1.3 1.1 2.7 1.9 4.2 2.2 1.4.4 2.8.4 4.1.2 2.6-.4 4.4-1.7 5.5-2.7.9-.8 1.3-1.6 1.6-1.5zM403.9 751.3c-.2-.1-.2-.6-.1-1.3 0-.7.2-1.7 0-2.9s-.5-2.7-1-4.4c-.5-1.7-1.1-3.6-1.5-5.9-.2-1.1-.2-2.3-.1-3.4.1-.6.2-1.1.3-1.7.1-.5.3-1 .5-1.5.9-1.9 2.1-3.2 3.2-4.2 2.2-1.9 3.8-2.6 4-2.3.3.3-.8 1.7-2.3 3.8-.8 1.1-1.6 2.3-2.1 3.8-.5 1.4-.6 3.1-.3 5s.8 3.8 1.2 5.6c.4 1.8.6 3.6.4 5.1-.1 1.5-.7 2.7-1.1 3.4-.5.8-.9 1-1.1.9zM477.1 772.9c-.1.4-4.7-.4-11.7-3-.9-.3-1.8-.7-2.7-1.1-.9-.4-1.9-.8-2.9-1.3-2-.9-4.1-2-6.3-3.1-4.3-2.4-8.9-5.3-13.5-8.7-4.5-3.5-8.6-7.1-12-10.7-1.7-1.8-3.3-3.5-4.7-5.2-.7-.8-1.4-1.6-2-2.5-.6-.8-1.2-1.6-1.8-2.3-4.4-6-6.4-10.2-6.1-10.4.4-.3 3.1 3.4 7.9 9 .6.7 1.2 1.4 1.9 2.2.7.7 1.4 1.5 2.1 2.3 1.4 1.6 3.1 3.2 4.8 4.9 3.5 3.3 7.5 6.8 11.9 10.2 4.4 3.3 8.9 6.2 13 8.7 2.1 1.2 4.1 2.3 6 3.3 1 .5 1.9 1 2.8 1.4.9.4 1.8.8 2.6 1.2 6.5 3 10.8 4.6 10.7 5.1zM381.4 1032.7c-.1 0-.6-.9-1.4-2.7-.4-.9-.9-2-1.5-3.3l-.9-2.1c-.3-.8-.6-1.6-1-2.5-.7-1.7-1.4-3.7-2.3-5.8-.8-2.1-1.6-4.5-2.5-7-.9-2.5-1.7-5.3-2.6-8.1-.9-2.9-1.7-6-2.6-9.2-.9-3.2-1.7-6.7-2.6-10.2-.5-1.8-.8-3.6-1.2-5.5l-1.2-5.7c-.7-3.9-1.5-7.9-2.1-12.1l-.9-6.3c-.3-2.2-.5-4.3-.8-6.5-.9-8.8-1.7-18.2-1.9-27.8-.2-9.7 0-19.7.6-29.9.7-10.2 1.9-20.2 3.4-29.8 1.5-9.6 3.5-18.7 5.6-27.3.6-2.2 1.1-4.3 1.7-6.4.6-2.1 1.2-4.1 1.8-6.2 1.1-4.1 2.5-7.9 3.7-11.7.6-1.9 1.3-3.7 1.9-5.5.7-1.8 1.2-3.6 1.9-5.3 1.4-3.4 2.6-6.7 3.9-9.8 1.3-3.1 2.5-6 3.9-8.8 1.3-2.7 2.4-5.3 3.7-7.7 1.2-2.4 2.3-4.6 3.4-6.6s2.1-3.8 3-5.5c.5-.8.9-1.6 1.3-2.3.4-.7.8-1.4 1.2-2 .8-1.2 1.4-2.3 1.9-3.1 1.1-1.7 1.7-2.5 1.8-2.5.1.1-.3 1-1.2 2.8-.4.9-1 2-1.6 3.2-.3.6-.7 1.3-1.1 2.1-.4.7-.8 1.5-1.2 2.4-.8 1.7-1.7 3.5-2.8 5.6-1 2.1-2 4.3-3.1 6.7-1.2 2.4-2.2 5-3.4 7.8-1.2 2.7-2.4 5.7-3.6 8.8-1.3 3.1-2.4 6.4-3.7 9.8-.7 1.7-1.2 3.5-1.8 5.3-.6 1.8-1.2 3.6-1.8 5.5-1.1 3.8-2.4 7.6-3.5 11.6-.6 2-1.1 4-1.7 6.1-.5 2.1-1 4.2-1.6 6.3-2 8.6-3.9 17.6-5.4 27.1-1.5 9.5-2.6 19.3-3.3 29.5-.7 10.1-.8 20.1-.7 29.7.1 9.6.8 18.8 1.7 27.6.2 2.2.5 4.4.7 6.5l.9 6.3c.5 4.1 1.3 8.1 1.9 12 .3 1.9.7 3.8 1.1 5.7.4 1.9.7 3.7 1.1 5.5.8 3.5 1.5 7 2.4 10.2.8 3.2 1.6 6.3 2.4 9.2.8 2.9 1.5 5.6 2.4 8.2.8 2.5 1.5 4.9 2.2 7.1.7 2.2 1.4 4.1 2 5.9.3.9.6 1.7.8 2.5.3.8.5 1.5.8 2.2.5 1.4.9 2.5 1.2 3.4.6 1.6.8 2.6.7 2.6zM527.4 861.9c-1 .1-2.1-18.4-8.3-40.2-6-21.8-14.6-38.2-13.7-38.7.4-.2 3 3.7 6.4 10.4.8 1.7 1.7 3.5 2.6 5.6.9 2 1.8 4.2 2.7 6.5 1.8 4.6 3.6 9.8 5.1 15.4 1.5 5.5 2.7 10.9 3.5 15.8.4 2.5.8 4.8 1 7 .3 2.2.5 4.2.6 6.1.7 7.5.5 12.1.1 12.1zM469.3 779.9c0 .4-3.7.7-9.5 0-.7-.1-1.5-.2-2.3-.3-.8-.1-1.6-.3-2.5-.5-1.7-.3-3.5-.8-5.4-1.3-3.7-1.1-7.8-2.5-11.9-4.4-4.1-1.9-7.8-4.1-11-6.2-1.6-1.1-3.1-2.2-4.4-3.3-.7-.5-1.3-1-1.9-1.6-.6-.5-1.2-1-1.7-1.5-4.3-4-6.5-6.9-6.2-7.2.4-.3 3.1 2 7.6 5.4.6.4 1.2.9 1.8 1.3.6.5 1.3.9 2 1.4 1.4 1 2.9 1.9 4.5 2.9 3.2 2 6.8 4 10.8 5.8 3.9 1.8 7.8 3.3 11.4 4.5 1.8.5 3.5 1.1 5.1 1.5.8.2 1.6.5 2.3.6.8.2 1.5.4 2.2.5 5.5 1.3 9.1 1.9 9.1 2.4z" class="colorStroke000 svgStroke"/><path stroke="#000" stroke-miterlimit="10" d="M404.3 1030.7c-.2.1-1.3-3.4-2.9-9.7-.4-1.6-.9-3.3-1.4-5.2-.4-1.9-.9-4-1.5-6.3-.5-2.3-1.1-4.7-1.6-7.2-.5-2.6-1.1-5.3-1.6-8.1-4.5-22.8-9.1-54.9-8.5-90.5 0-2.2.1-4.4.1-6.6.1-2.2.2-4.4.3-6.5.1-2.2.2-4.3.4-6.4.1-1.1.1-2.1.2-3.2s.2-2.1.3-3.1c.4-4.2.8-8.3 1.2-12.3.6-4 1.1-7.9 1.7-11.7.1-1 .3-1.9.4-2.8.2-.9.4-1.9.5-2.8.4-1.8.7-3.7 1.1-5.5.3-1.8.7-3.6 1-5.3.3-1.7.8-3.4 1.2-5.1.8-3.3 1.6-6.5 2.4-9.6.9-3.1 1.8-6 2.6-8.8.4-1.4.8-2.8 1.2-4.1.2-.7.4-1.3.6-2 .2-.6.5-1.3.7-1.9.9-2.5 1.7-4.8 2.5-7s1.5-4.2 2.3-6c.8-1.8 1.5-3.5 2.4-5 1.6-2.9 3.6-4.8 5.1-5.7 1.5-.9 2.5-1 2.5-1 .1.1-.8.5-2.1 1.5s-3 2.9-4.4 5.7c-.7 1.4-1.4 3.1-2 4.9-.6 1.9-1.3 3.9-2 6.1-.7 2.2-1.5 4.5-2.3 7-.2.6-.4 1.2-.6 1.9-.2.6-.4 1.3-.5 2-.4 1.3-.7 2.7-1.1 4.1-.8 2.8-1.6 5.7-2.4 8.8-.7 3.1-1.4 6.3-2.2 9.6-.4 1.7-.8 3.3-1.1 5.1-.3 1.7-.6 3.5-.9 5.3-.3 1.8-.6 3.6-1 5.4-.2.9-.3 1.8-.5 2.8-.2.9-.3 1.9-.4 2.8-.5 3.8-1 7.7-1.6 11.6-.4 4-.8 8.1-1.2 12.2-.1 1-.2 2.1-.3 3.1-.1 1-.1 2.1-.2 3.2-.1 2.1-.2 4.2-.3 6.4-.1 2.1-.3 4.3-.3 6.5s-.1 4.4-.1 6.6c-.6 35.3 3.6 67.2 7.5 90 .5 2.9.9 5.6 1.4 8.2.5 2.6 1 5 1.4 7.2.4 2.3.8 4.4 1.2 6.3.4 1.9.8 3.7 1.1 5.3 1.3 6.2 1.9 9.7 1.7 9.8zM460.6 1048.5c0 .4-3.1 1-8.2 1.4-5.1.4-12.2.6-20-.6-7.8-1.2-14.6-3.9-19-6.8-4.4-2.8-6.4-5.4-6.1-5.7.3-.4 2.8 1.5 7.3 3.7 4.4 2.2 10.9 4.4 18.3 5.6 7.5 1.1 14.4 1.3 19.4 1.5 5.1.1 8.3.4 8.3.9z" class="colorStroke000 svgStroke"/><path stroke="#000" stroke-miterlimit="10" d="M457.5 1048.6c-.2 0-.7-2.6-1.4-7.4-.2-1.2-.4-2.5-.6-4-.2-1.5-.3-3.1-.5-4.8-.3-3.4-.8-7.4-1.1-11.7-.2-2.2-.3-4.5-.5-6.8-.2-2.4-.2-4.8-.4-7.4-.3-5.1-.3-10.6-.5-16.4-.1-11.5.2-24.2 1.1-37.5.9-13.3 2.4-25.9 4.1-37.3.9-5.7 1.7-11.1 2.7-16.1.5-2.5.9-5 1.4-7.3.5-2.3 1-4.6 1.4-6.7.9-4.3 1.9-8.1 2.7-11.4.4-1.7.8-3.2 1.2-4.7.4-1.4.8-2.7 1.1-3.9 1.4-4.7 2.2-7.2 2.4-7.2s-.2 2.7-1.2 7.5c-.2 1.2-.5 2.5-.8 4-.3 1.5-.6 3-.9 4.7-.6 3.4-1.5 7.2-2.2 11.5-.4 2.1-.8 4.4-1.2 6.7-.4 2.3-.8 4.8-1.2 7.3-.9 5-1.6 10.4-2.4 16.1-1.5 11.4-2.8 23.9-3.8 37.1-.9 13.2-1.3 25.8-1.4 37.3 0 5.7 0 11.2.2 16.3.1 2.5.1 5 .2 7.4.1 2.4.2 4.6.3 6.8.1 4.3.4 8.3.6 11.7.1 1.7.2 3.3.3 4.8.1 1.5.2 2.8.3 4 .2 4.6.3 7.3.1 7.4zM419.2 1078.7c-.9 0-1.5-7.8-2-17.3s-.7-17.3.2-17.4c.9-.1 2.5 7.6 3 17.3.5 9.6-.4 17.4-1.2 17.4zM450.1 1086.7c-.9.2-3-7.9-3.8-18.2-.8-10.2 0-18.6.9-18.5.9 0 1.6 8.2 2.4 18.3.7 10 1.4 18.2.5 18.4zM472.4 1110.3c-.8.5-5.1-5.5-11.5-11.7-6.4-6.3-12.4-10.5-12-11.3.2-.4 2.1.2 4.7 1.7 2.7 1.5 6.1 4 9.5 7.3 3.3 3.3 5.9 6.7 7.4 9.4 1.7 2.5 2.3 4.3 1.9 4.6zM417.7 1081.1c.3.9-12.9 6.1-29.4 11.7-4.1 1.4-8.1 2.7-11.7 3.8-1.8.6-3.5 1.1-4.9 1.7-1.5.6-2.7 1.3-3.6 2.2-.9.8-1.5 1.8-1.9 2.7-.4.9-.5 1.8-.4 2.5.1 1.4.6 2.2.4 2.3-.1.1-.3 0-.7-.3-.3-.3-.7-.9-1-1.8-.3-.9-.4-2-.1-3.2.3-1.2.9-2.6 2-3.9 1.1-1.2 2.5-2.2 4.1-3 1.6-.8 3.3-1.4 5.1-2.1 3.5-1.3 7.5-2.7 11.6-4.1 16.5-5.5 30.2-9.3 30.5-8.5z" class="colorStroke000 svgStroke"/><path stroke="#000" stroke-miterlimit="10" d="M411.2 1093.7c.1.9-11.3 3.2-24.8 8-3.4 1.2-6.6 2.4-9.4 3.6-1.4.6-2.8 1.1-4 1.7-1.2.5-2.3 1.1-3.1 1.7-1.6 1.2-2.3 2.9-2.4 4-.1 1.2.2 1.8 0 2-.1.1-.3 0-.6-.3s-.6-.8-.7-1.6c-.1-.7-.1-1.7.2-2.7.3-1 1-2.2 1.9-3.1.9-1 2.1-1.8 3.4-2.4 1.3-.7 2.6-1.3 4.1-2 2.9-1.3 6.1-2.7 9.5-3.9 6.9-2.5 13.4-3.9 18.1-4.7 4.8-.7 7.7-.7 7.8-.3zM407.8 1100.7c.2.9-9.3 3.8-20.4 8.6-1.4.6-2.7 1.2-4 1.8-1.3.6-2.5 1.2-3.6 1.8-2.2 1.2-4 2.6-5.3 3.9-2.6 2.7-2.6 5.3-3.1 5.3-.1 0-.2-.2-.3-.5 0-.2-.1-.4-.1-.6v-.8c0-1.2.5-3 1.8-4.8 1.2-1.8 3.2-3.6 5.5-5.1 1.2-.8 2.5-1.5 3.8-2.1 1.3-.7 2.7-1.3 4.1-1.9 11.4-4.9 21.5-6.4 21.6-5.6zM414 1107.5c.3.8-7.6 4.7-17.6 8.5-2.5 1-4.9 1.8-7.1 2.6-1.1.4-2.2.7-3.1 1-.9.3-1.7.6-2.3 1-.3.2-.5.4-.7.6-.2.2-.3.4-.4.6-.2.5-.2 1-.1 1.3.1.7.6 1.1.5 1.3 0 .1-.2.2-.5.1s-.8-.3-1.1-.9c-.4-.5-.6-1.3-.5-2.2 0-.5.2-.9.4-1.4.2-.5.6-.9 1-1.3.8-.8 1.8-1.3 2.8-1.7 1-.4 2-.9 3.1-1.3 2.1-.9 4.5-1.9 7-2.8 9.8-3.8 18.2-6.2 18.6-5.4zM458.5 1107.6c-.1.5-3.9.1-9.9-.6-1.5-.2-3.2-.3-4.9-.5-1.8-.2-3.6-.4-5.5-.3-1.9 0-3.7.4-5.6 1.2-1.9.7-3.9 1.8-5.9 2.9-16.4 8.8-30.1 15.3-30.5 14.5s12.5-8.6 29-17.4c2.1-1.1 4.1-2.2 6.3-3 2.2-.8 4.6-1.3 6.7-1.2 2.2 0 4.1.3 5.9.6 1.8.3 3.4.6 4.9.9 6 1.3 9.6 2.5 9.5 2.9zM665.2 1036.3c-.1 0 .2-1.6.8-4.6.6-3 1.6-7.3 2.8-13 2.4-11.3 5.5-27.6 8.1-48 1.3-10.2 2.5-21.4 3.1-33.4.6-12 .6-25-1.4-38.3-2-13.3-6-27.1-13.6-39.6-3.8-6.2-8.3-12.2-13.7-17.3-5.4-5.2-11.6-9.7-18.5-13-.8-.5-1.8-.8-2.6-1.1-.9-.4-1.8-.7-2.6-1.1l-2.7-.9c-.9-.3-1.8-.6-2.7-.8-3.7-.9-7.4-1.5-11.1-1.8-7.4-.5-14.9.4-21.9 2.3-14.1 3.7-26.5 11.1-36.9 19.5-10.5 8.5-19.4 17.9-27.3 26.9-7.9 9.1-14.7 18.1-20.5 26.5-5.8 8.4-10.7 16.4-14.7 23.5-2 3.5-3.8 6.9-5.4 10-1.6 3.1-3 6-4.3 8.6-.6 1.3-1.2 2.5-1.8 3.7-.5 1.2-1 2.2-1.5 3.3-.9 2-1.7 3.7-2.3 5.1-1.2 2.8-1.9 4.2-2 4.2-.1 0 .4-1.6 1.4-4.4.5-1.4 1.2-3.2 2-5.2.4-1 .9-2.1 1.3-3.3.5-1.2 1.1-2.4 1.6-3.7 1.1-2.7 2.5-5.5 4-8.7 1.6-3.1 3.2-6.6 5.2-10.2 3.9-7.2 8.6-15.3 14.4-23.9 5.7-8.6 12.5-17.7 20.4-27 7.9-9.2 16.8-18.8 27.5-27.5 5.3-4.3 11.1-8.4 17.5-11.9 6.3-3.5 13.2-6.4 20.5-8.3 7.3-1.9 15-2.9 22.9-2.4 3.9.2 7.8.8 11.7 1.8 1 .2 1.9.5 2.9.8l2.9.9c.9.4 1.9.8 2.8 1.1.9.4 1.9.7 2.8 1.2 7.3 3.5 13.8 8.2 19.4 13.6 5.6 5.4 10.3 11.6 14.2 18 3.9 6.5 6.9 13.3 9.1 20.2 2.2 6.9 3.7 13.8 4.7 20.6 2 13.6 1.9 26.7 1.2 38.9s-2.1 23.4-3.5 33.6c-2.9 20.4-6.4 36.8-9.2 48-1.4 5.6-2.6 9.9-3.4 12.8-1 2.8-1.5 4.4-1.6 4.3z" class="colorStroke000 svgStroke"/><path stroke="#000" stroke-miterlimit="10" d="M610.6 924.5c.2.1-1.2 2.9-3.8 7.9-2.7 4.9-6.8 12-12.2 20.5-10.9 16.9-27.3 39.5-48.5 61.8-5.3 5.6-10.6 10.9-15.8 15.9-5.3 5-10.4 9.7-15.6 14-10.3 8.5-20.4 15.3-29.7 19.5-9.2 4.4-17.4 6.1-23 6.8-1.4.1-2.7.2-3.7.3h-2.8c-1.5 0-2.3-.1-2.3-.2s.8-.3 2.2-.4c.7-.1 1.6-.2 2.7-.3 1.1-.2 2.3-.4 3.7-.6 5.5-1 13.3-3.1 22.2-7.6 8.9-4.4 18.7-11.2 28.7-19.7 5-4.3 10.1-9 15.3-14 5.2-5 10.4-10.3 15.6-15.9 21-22.2 37.6-44.4 48.9-60.9 5.7-8.2 10-15.1 13.1-19.8 3-4.9 4.8-7.5 5-7.3z" class="colorStroke000 svgStroke"/><path stroke="#000" stroke-miterlimit="10" d="M574.4 1064c-.5-.2 1.6-6.7 4.7-17.3.8-2.7 1.6-5.6 2.5-8.7.9-3.1 1.7-6.5 2.6-10 1.8-7.1 3.6-14.9 5.2-23.2 1.6-8.3 3-16.2 4-23.4.5-3.6 1-7 1.4-10.3.4-3.2.8-6.2 1.1-9 1.2-11 1.8-17.8 2.3-17.8.4 0 .7 6.9 0 18-.2 2.8-.4 5.8-.7 9.1-.3 3.3-.7 6.7-1.1 10.4-.9 7.3-2.2 15.3-3.8 23.6-1.7 8.3-3.6 16.2-5.5 23.3-1 3.5-2 6.9-3 10-1 3.1-1.9 6-2.9 8.6-3.6 10.6-6.4 16.8-6.8 16.7zM661.7 1059.7c.2.3-3.6 3.8-11 7.4-3.7 1.8-8.3 3.6-13.6 5-5.3 1.4-11.2 2.4-17.5 2.9-12.5.9-23.9-.3-31.9-1.5-8.1-1.2-13-2.5-12.9-2.9.1-.5 5.1-.1 13.2.6 8.1.6 19.2 1.4 31.4.6 6.1-.5 11.8-1.4 17-2.6 5.1-1.2 9.7-2.7 13.4-4.2 7.4-3 11.6-5.8 11.9-5.3zM533.6 1060.7c-.9-.2 1.5-11.5 5.4-25.1 1-3.4 1.9-6.6 2.8-9.6.9-2.9 1.7-5.6 2.6-7.8.9-2.2 1.8-3.9 2.6-5s1.4-1.6 1.6-1.4c.4.3-.9 2.8-2 7.2-.5 2.2-1.2 4.9-1.9 7.9-.8 3-1.6 6.2-2.6 9.6-3.8 13.5-7.6 24.4-8.5 24.2zM568.2 1066.4c0 .9-7.6 1.8-16.9.3-9.3-1.5-16.3-4.8-16-5.6.3-.9 7.5 1 16.5 2.4s16.4 2 16.4 2.9zM417.6 1068.2c-.2.4-2 .1-4.8-1s-6.5-3-10.2-5.8c-3.7-2.8-6.6-5.8-8.4-8.2-1.8-2.4-2.6-4.1-2.3-4.4.8-.6 5.6 4.8 12.6 10 7 5.4 13.5 8.5 13.1 9.4z" class="colorStroke000 svgStroke"/><path stroke="#000" stroke-miterlimit="10" d="M407.6 1039.9c.3.3 0 1.4-1.1 2.8s-2.9 3.1-5.4 4.3c-2.4 1.2-4.9 1.8-6.6 1.8-1.8 0-2.9-.3-2.9-.8 0-.9 3.9-1.8 8.1-3.9 4.2-2.1 7.2-4.8 7.9-4.2zM460 993.8c-.8-.5 3.6-8.8 7.4-19.6 3.9-10.8 5.7-20 6.6-19.9.4.1.5 2.5 0 6.3s-1.6 9.1-3.6 14.6c-2 5.6-4.4 10.4-6.4 13.6-2.1 3.4-3.7 5.2-4 5zM668.5 714.2c.1.2-2.5 1.1-7.1 2.4-4.6 1.3-11.3 3.1-19.6 5.1-16.6 4.1-39.7 9.2-65.4 13.7-12.8 2.3-25.1 4.2-36.3 5.8-5.6.8-10.9 1.5-15.9 2.1-5 .6-9.6 1.2-13.9 1.6-4.3.4-8.2.5-11.6.4-3.4-.1-6.4-.4-8.8-.8-4.8-.8-7.3-1.8-7.2-2 .1-.3 2.6.4 7.4.7 4.7.4 11.6.3 20-.7 4.2-.5 8.8-1.2 13.8-1.9 5-.8 10.3-1.6 15.8-2.4 11.1-1.7 23.4-3.8 36.2-6 25.6-4.5 48.7-9.2 65.4-12.7 8.3-1.8 15.1-3.2 19.8-4.1 4.7-1 7.4-1.4 7.4-1.2zM663.8 761.4c.1.6-8.5 1.5-21.8 5.6-6.6 2-14.4 4.8-22.8 8.4-8.4 3.6-17.5 7.9-27 12.7-9.5 4.8-18.5 9.5-26.7 13.6-4.1 2-8.1 4-11.9 5.6-3.8 1.6-7.4 3-10.8 4-3.4 1-6.6 1.6-9.4 1.9-.7.1-1.4.1-2 .2-.7.1-1.3.1-1.9.1h-1.7c-.6 0-1.1-.1-1.6-.1-4-.4-6-1.2-6-1.3.1-.3 2.2.1 6 .1h1.5c.5 0 1.1-.1 1.7-.1.6 0 1.2-.1 1.8-.2.6-.1 1.3-.2 1.9-.3 2.7-.4 5.7-1.2 8.9-2.3 3.3-1.1 6.7-2.5 10.4-4.2 3.7-1.7 7.5-3.7 11.6-5.8 8.2-4.2 17.1-9 26.6-13.8 9.5-4.8 18.7-9.1 27.3-12.6 8.6-3.5 16.5-6.1 23.4-7.8 1.7-.5 3.3-.8 4.9-1.2 1.5-.3 3-.7 4.4-.9 2.8-.4 5.1-.9 7.1-1.1 3.9-.6 6.1-.7 6.1-.5z" class="colorStroke000 svgStroke"/><ellipse cx="665.3" cy="735.9" stroke="#000" stroke-miterlimit="10" rx="1.6" ry="21.1" class="colorStroke000 svgStroke"/><path stroke="#000" stroke-miterlimit="10" d="M700.7 700.1c.5.7-5.9 5.8-14.9 10.3-9 4.5-16.9 6.5-17.2 5.7-.3-.9 7-4.2 15.7-8.6 8.8-4.4 15.9-8.2 16.4-7.4zM732.2 675.2c0 .5-2.2.7-4.9 2.7-1.4 1-2.9 2.3-4.6 4-1.7 1.6-3.6 3.4-5.7 5.2-8.2 7.3-15.3 12.6-15.9 12-.6-.7 5.6-7.1 13.8-14.4 2-1.8 4-3.5 5.9-5 1.8-1.5 3.7-2.9 5.4-3.7 1.7-.9 3.3-1.2 4.4-1.2 1 0 1.6.2 1.6.4zM756.7 678.9c-.2.5-2.8-.9-7.2-.4-2.1.3-4.6 1-7.2 2.3-2.6 1.3-5.1 3.3-7.9 5.5-10.9 8.8-20.3 15.4-20.9 14.7-.6-.7 7.8-8.4 18.8-17.3 2.8-2.2 5.6-4.3 8.6-5.6 2.9-1.4 5.9-2 8.4-2s4.4.6 5.7 1.3c1.3.7 1.8 1.3 1.7 1.5z" class="colorStroke000 svgStroke"/><path stroke="#000" stroke-miterlimit="10" d="M762.7 682c-.2 0-.3-.6-1-1.2-.3-.3-.8-.5-1.4-.6-.6-.1-1.2 0-2 .3s-1.6.8-2.6 1.5c-1 .6-2 1.3-3.1 2-2.2 1.4-4.5 3-7 4.7-9.9 6.7-17.5 12.7-18.2 12-.6-.6 6.2-7.9 16.3-14.7 2.5-1.7 5-3.2 7.3-4.5 1.1-.6 2.3-1.2 3.3-1.8 1-.5 2.1-1.1 3.2-1.3 1.1-.3 2.3-.3 3.2.1.9.4 1.5 1 1.9 1.6.3.6.4 1.2.3 1.5.1.3-.1.4-.2.4z" class="colorStroke000 svgStroke"/><path stroke="#000" stroke-miterlimit="10" d="M764.3 681.4c.6.6-5.2 7.4-13.6 14.4-8.4 7-16.1 11.5-16.6 10.8-.5-.8 6.3-6.4 14.5-13.3 8.3-6.9 15-12.6 15.7-11.9zM770.9 698c.2.9-8.2 3.3-18.2 6.8-10.1 3.4-18.2 6.7-18.6 5.8-.4-.8 7.2-5.4 17.5-8.9s19.2-4.6 19.3-3.7zM771.1 700.3c.3.3-1.2 2.6-4.6 5.2-1.7 1.3-3.9 2.7-6.3 4-2.5 1.3-5.2 2.7-8 4-11.5 5.4-21.4 8.7-21.7 7.9-.3-.8 8.9-5.4 20.3-10.8 5.7-2.7 11-5 14.5-7s5.5-3.7 5.8-3.3zM742.5 736.8c.1.4-4 2-11 2.4-3.5.2-7.6.1-12.2-.3-4.5-.4-9.5-1.1-14.6-1.6-5.1-.6-10-.9-14.4-.8-4.4.1-8.4.6-11.6 1.4-6.5 1.6-10 4-10.3 3.6-.1-.2.6-1 2.2-2.1 1.6-1.2 4.1-2.5 7.5-3.7 3.3-1.2 7.5-1.9 12.1-2.2 4.6-.3 9.7-.1 14.9.5 5.2.6 10.1 1.3 14.6 1.9 4.5.6 8.5.9 11.8 1 6.7.1 10.9-.6 11-.1z" class="colorStroke000 svgStroke"/><ellipse cx="731.8" cy="729.8" stroke="#000" stroke-miterlimit="10" rx="11" ry="1.6" transform="rotate(17.025 731.898 729.925)" class="colorStroke000 svgStroke"/></g></svg>