<svg width="448" height="448" viewBox="0 0 448 448" fill="none" xmlns="http://www.w3.org/2000/svg">
<path d="M400 0H48C35.2696 0 23.0606 5.05713 14.0589 14.0589C5.05713 23.0606 0 35.2696 0 48L0 400C0 412.73 5.05713 424.939 14.0589 433.941C23.0606 442.943 35.2696 448 48 448H185.25V295.69H122.25V224H185.25V169.36C185.25 107.21 222.25 72.88 278.92 72.88C306.06 72.88 334.44 77.72 334.44 77.72V138.72H303.17C272.36 138.72 262.75 157.84 262.75 177.45V224H331.53L320.53 295.69H262.75V448H400C412.73 448 424.939 442.943 433.941 433.941C442.943 424.939 448 412.73 448 400V48C448 35.2696 442.943 23.0606 433.941 14.0589C424.939 5.05713 412.73 0 400 0V0Z" fill="white"/>
</svg>
